<svg xmlns="http://www.w3.org/2000/svg" width="800" height="600" viewBox="0 0 800 600">
  <defs>
    <linearGradient id="bg" x1="0%" y1="0%" x2="100%" y2="100%">
      <stop offset="0%" stop-color="#8A7A5A"/>
      <stop offset="100%" stop-color="#6A5A3A"/>
    </linearGradient>
    <linearGradient id="overlay" x1="0%" y1="60%" x2="0%" y2="100%">
      <stop offset="0%" stop-color="#3D2817" stop-opacity="0"/>
      <stop offset="100%" stop-color="#2C3E36" stop-opacity="0.5"/>
    </linearGradient>
  </defs>
  <rect width="800" height="600" fill="url(#bg)"/>
  <line x1="530" y1="62" x2="534" y2="42" stroke="#FAF5ED" stroke-width="0.5" opacity="0.04"/><line x1="297" y1="147" x2="293" y2="174" stroke="#FAF5ED" stroke-width="0.5" opacity="0.07"/><line x1="604" y1="290" x2="623" y2="323" stroke="#FAF5ED" stroke-width="0.5" opacity="0.07"/><line x1="668" y1="441" x2="642" y2="423" stroke="#FAF5ED" stroke-width="0.5" opacity="0.06"/><line x1="401" y1="507" x2="398" y2="540" stroke="#FAF5ED" stroke-width="0.5" opacity="0.06"/><line x1="98" y1="110" x2="60" y2="80" stroke="#FAF5ED" stroke-width="0.5" opacity="0.05"/><line x1="738" y1="144" x2="773" y2="145" stroke="#FAF5ED" stroke-width="0.5" opacity="0.03"/><line x1="434" y1="496" x2="444" y2="476" stroke="#FAF5ED" stroke-width="0.5" opacity="0.06"/><line x1="617" y1="578" x2="632" y2="544" stroke="#FAF5ED" stroke-width="0.5" opacity="0.08"/><line x1="368" y1="48" x2="372" y2="48" stroke="#FAF5ED" stroke-width="0.5" opacity="0.07"/><line x1="57" y1="459" x2="32" y2="475" stroke="#FAF5ED" stroke-width="0.5" opacity="0.08"/><line x1="146" y1="289" x2="165" y2="319" stroke="#FAF5ED" stroke-width="0.5" opacity="0.06"/><line x1="189" y1="377" x2="186" y2="385" stroke="#FAF5ED" stroke-width="0.5" opacity="0.07"/><line x1="729" y1="73" x2="747" y2="107" stroke="#FAF5ED" stroke-width="0.5" opacity="0.04"/><line x1="199" y1="470" x2="182" y2="478" stroke="#FAF5ED" stroke-width="0.5" opacity="0.07"/><line x1="354" y1="453" x2="316" y2="434" stroke="#FAF5ED" stroke-width="0.5" opacity="0.04"/><line x1="443" y1="3" x2="455" y2="37" stroke="#FAF5ED" stroke-width="0.5" opacity="0.06"/><line x1="590" y1="56" x2="609" y2="45" stroke="#FAF5ED" stroke-width="0.5" opacity="0.08"/><line x1="651" y1="8" x2="634" y2="2" stroke="#FAF5ED" stroke-width="0.5" opacity="0.07"/><line x1="600" y1="130" x2="594" y2="114" stroke="#FAF5ED" stroke-width="0.5" opacity="0.05"/><line x1="685" y1="202" x2="698" y2="240" stroke="#FAF5ED" stroke-width="0.5" opacity="0.05"/><line x1="367" y1="495" x2="342" y2="496" stroke="#FAF5ED" stroke-width="0.5" opacity="0.03"/><line x1="633" y1="203" x2="663" y2="235" stroke="#FAF5ED" stroke-width="0.5" opacity="0.03"/><line x1="591" y1="90" x2="609" y2="115" stroke="#FAF5ED" stroke-width="0.5" opacity="0.06"/><line x1="117" y1="111" x2="93" y2="123" stroke="#FAF5ED" stroke-width="0.5" opacity="0.04"/><line x1="152" y1="527" x2="113" y2="503" stroke="#FAF5ED" stroke-width="0.5" opacity="0.06"/><line x1="212" y1="47" x2="183" y2="78" stroke="#FAF5ED" stroke-width="0.5" opacity="0.05"/><line x1="354" y1="424" x2="324" y2="439" stroke="#FAF5ED" stroke-width="0.5" opacity="0.03"/><line x1="95" y1="33" x2="86" y2="44" stroke="#FAF5ED" stroke-width="0.5" opacity="0.05"/><line x1="478" y1="108" x2="457" y2="80" stroke="#FAF5ED" stroke-width="0.5" opacity="0.05"/><line x1="258" y1="57" x2="263" y2="55" stroke="#FAF5ED" stroke-width="0.5" opacity="0.06"/><line x1="372" y1="443" x2="346" y2="482" stroke="#FAF5ED" stroke-width="0.5" opacity="0.03"/><line x1="348" y1="52" x2="314" y2="84" stroke="#FAF5ED" stroke-width="0.5" opacity="0.04"/><line x1="659" y1="253" x2="627" y2="270" stroke="#FAF5ED" stroke-width="0.5" opacity="0.07"/><line x1="541" y1="181" x2="554" y2="161" stroke="#FAF5ED" stroke-width="0.5" opacity="0.06"/><line x1="758" y1="508" x2="777" y2="530" stroke="#FAF5ED" stroke-width="0.5" opacity="0.06"/><line x1="276" y1="214" x2="259" y2="180" stroke="#FAF5ED" stroke-width="0.5" opacity="0.06"/><line x1="658" y1="494" x2="683" y2="490" stroke="#FAF5ED" stroke-width="0.5" opacity="0.04"/><line x1="1" y1="403" x2="19" y2="413" stroke="#FAF5ED" stroke-width="0.5" opacity="0.04"/><line x1="130" y1="133" x2="162" y2="107" stroke="#FAF5ED" stroke-width="0.5" opacity="0.06"/><line x1="165" y1="393" x2="150" y2="377" stroke="#FAF5ED" stroke-width="0.5" opacity="0.07"/><line x1="792" y1="508" x2="829" y2="521" stroke="#FAF5ED" stroke-width="0.5" opacity="0.07"/><line x1="592" y1="52" x2="554" y2="39" stroke="#FAF5ED" stroke-width="0.5" opacity="0.05"/><line x1="252" y1="520" x2="284" y2="494" stroke="#FAF5ED" stroke-width="0.5" opacity="0.03"/><line x1="647" y1="144" x2="615" y2="139" stroke="#FAF5ED" stroke-width="0.5" opacity="0.07"/><line x1="448" y1="316" x2="442" y2="321" stroke="#FAF5ED" stroke-width="0.5" opacity="0.07"/><line x1="583" y1="339" x2="563" y2="313" stroke="#FAF5ED" stroke-width="0.5" opacity="0.07"/><line x1="714" y1="313" x2="706" y2="309" stroke="#FAF5ED" stroke-width="0.5" opacity="0.06"/><line x1="464" y1="90" x2="450" y2="100" stroke="#FAF5ED" stroke-width="0.5" opacity="0.06"/><line x1="310" y1="125" x2="283" y2="121" stroke="#FAF5ED" stroke-width="0.5" opacity="0.07"/><circle cx="480.0" cy="300.0" r="6.7" fill="#FAF5ED" opacity="0.06"/><circle cx="456.6" cy="356.6" r="5.2" fill="#FAF5ED" opacity="0.05"/><circle cx="400.0" cy="380.0" r="6.3" fill="#FAF5ED" opacity="0.07"/><circle cx="343.4" cy="356.6" r="6.6" fill="#FAF5ED" opacity="0.07"/><circle cx="320.0" cy="300.0" r="3.4" fill="#FAF5ED" opacity="0.09"/><circle cx="343.4" cy="243.4" r="5.1" fill="#FAF5ED" opacity="0.05"/><circle cx="400.0" cy="220.0" r="4.2" fill="#FAF5ED" opacity="0.06"/><circle cx="456.6" cy="243.4" r="8.6" fill="#FAF5ED" opacity="0.07"/><g transform="translate(400,300) rotate(0) scale(1.5)">
    <path d="M0-60C-30-40,-40 0,-20 30C-10 50,0 60,0 60S10 50,20 30C40 0,30-40,0-60Z" fill="#FAF5ED" opacity="0.08"/>
    <path d="M0 60V-30" stroke="#FAF5ED" stroke-width="1.5" opacity="0.1" stroke-linecap="round"/>
    <path d="M0-10C-12-18,-18-14,-22-6" stroke="#FAF5ED" stroke-width="1" opacity="0.08" fill="none" stroke-linecap="round"/>
    <path d="M0 10C12 2,18 6,22 14" stroke="#FAF5ED" stroke-width="1" opacity="0.08" fill="none" stroke-linecap="round"/>
  </g>
  <rect width="800" height="600" fill="url(#overlay)"/>
  <text x="400" y="540" text-anchor="middle" font-family="Georgia,serif" font-size="24" fill="#FAF5ED" font-weight="600">Artisan Craftsmanship</text>
  <text x="400" y="568" text-anchor="middle" font-family="system-ui,sans-serif" font-size="14" fill="#D4C5A9">Handmade · Small-batch · Fair-wage production</text>
</svg>