<svg xmlns="http://www.w3.org/2000/svg" width="800" height="600" viewBox="0 0 800 600">
  <defs>
    <linearGradient id="bg" x1="0%" y1="0%" x2="100%" y2="100%">
      <stop offset="0%" stop-color="#7A9A5E"/>
      <stop offset="100%" stop-color="#5A7A3E"/>
    </linearGradient>
    <linearGradient id="overlay" x1="0%" y1="60%" x2="0%" y2="100%">
      <stop offset="0%" stop-color="#3D2817" stop-opacity="0"/>
      <stop offset="100%" stop-color="#2C3E36" stop-opacity="0.5"/>
    </linearGradient>
  </defs>
  <rect width="800" height="600" fill="url(#bg)"/>
  <g transform="translate(400,250) rotate(0) scale(2)">
    <path d="M0-60C-30-40,-40 0,-20 30C-10 50,0 60,0 60S10 50,20 30C40 0,30-40,0-60Z" fill="#FAF5ED" opacity="0.08"/>
    <path d="M0 60V-30" stroke="#FAF5ED" stroke-width="1.5" opacity="0.1" stroke-linecap="round"/>
    <path d="M0-10C-12-18,-18-14,-22-6" stroke="#FAF5ED" stroke-width="1" opacity="0.08" fill="none" stroke-linecap="round"/>
    <path d="M0 10C12 2,18 6,22 14" stroke="#FAF5ED" stroke-width="1" opacity="0.08" fill="none" stroke-linecap="round"/>
  </g><g transform="translate(200,350) rotate(25) scale(1.5)">
    <path d="M0-60C-30-40,-40 0,-20 30C-10 50,0 60,0 60S10 50,20 30C40 0,30-40,0-60Z" fill="#FAF5ED" opacity="0.08"/>
    <path d="M0 60V-30" stroke="#FAF5ED" stroke-width="1.5" opacity="0.1" stroke-linecap="round"/>
    <path d="M0-10C-12-18,-18-14,-22-6" stroke="#FAF5ED" stroke-width="1" opacity="0.08" fill="none" stroke-linecap="round"/>
    <path d="M0 10C12 2,18 6,22 14" stroke="#FAF5ED" stroke-width="1" opacity="0.08" fill="none" stroke-linecap="round"/>
  </g><g transform="translate(600,300) rotate(-15) scale(1.2)">
    <path d="M0-60C-30-40,-40 0,-20 30C-10 50,0 60,0 60S10 50,20 30C40 0,30-40,0-60Z" fill="#FAF5ED" opacity="0.08"/>
    <path d="M0 60V-30" stroke="#FAF5ED" stroke-width="1.5" opacity="0.1" stroke-linecap="round"/>
    <path d="M0-10C-12-18,-18-14,-22-6" stroke="#FAF5ED" stroke-width="1" opacity="0.08" fill="none" stroke-linecap="round"/>
    <path d="M0 10C12 2,18 6,22 14" stroke="#FAF5ED" stroke-width="1" opacity="0.08" fill="none" stroke-linecap="round"/>
  </g><circle cx="550.0" cy="300.0" r="6.2" fill="#FAF5ED" opacity="0.06"/><circle cx="537.0" cy="361.0" r="8.3" fill="#FAF5ED" opacity="0.06"/><circle cx="500.4" cy="411.5" r="3.1" fill="#FAF5ED" opacity="0.08"/><circle cx="446.4" cy="442.7" r="5.0" fill="#FAF5ED" opacity="0.05"/><circle cx="384.3" cy="449.2" r="6.9" fill="#FAF5ED" opacity="0.04"/><circle cx="325.0" cy="429.9" r="7.6" fill="#FAF5ED" opacity="0.07"/><circle cx="278.6" cy="388.2" r="9.0" fill="#FAF5ED" opacity="0.05"/><circle cx="253.3" cy="331.2" r="4.4" fill="#FAF5ED" opacity="0.09"/><circle cx="253.3" cy="268.8" r="7.1" fill="#FAF5ED" opacity="0.09"/><circle cx="278.6" cy="211.8" r="4.4" fill="#FAF5ED" opacity="0.06"/><circle cx="325.0" cy="170.1" r="3.9" fill="#FAF5ED" opacity="0.05"/><circle cx="384.3" cy="150.8" r="7.6" fill="#FAF5ED" opacity="0.08"/><circle cx="446.4" cy="157.3" r="4.2" fill="#FAF5ED" opacity="0.06"/><circle cx="500.4" cy="188.5" r="5.0" fill="#FAF5ED" opacity="0.09"/><circle cx="537.0" cy="239.0" r="5.3" fill="#FAF5ED" opacity="0.09"/>
  <rect width="800" height="600" fill="url(#overlay)"/>
  <text x="400" y="540" text-anchor="middle" font-family="Georgia,serif" font-size="24" fill="#FAF5ED" font-weight="600">Ethical Sourcing</text>
  <text x="400" y="568" text-anchor="middle" font-family="system-ui,sans-serif" font-size="14" fill="#D4C5A9">Hemp · Bamboo · Banana fiber from trusted farms</text>
</svg>