<svg xmlns="http://www.w3.org/2000/svg" width="600" height="800" viewBox="0 0 600 800">
  <defs>
    <linearGradient id="bg" x1="0%" y1="0%" x2="50%" y2="100%">
      <stop offset="0%" stop-color="#B08A60"/>
      <stop offset="100%" stop-color="#8A6A40"/>
    </linearGradient>
    <linearGradient id="overlay" x1="0%" y1="60%" x2="0%" y2="100%">
      <stop offset="0%" stop-color="#3D2817" stop-opacity="0"/>
      <stop offset="100%" stop-color="#2C3E36" stop-opacity="0.6"/>
    </linearGradient>
  </defs>
  <rect width="600" height="800" fill="url(#bg)"/>
  <path d="M0 240 Q150 220,300 240 T600 240" stroke="#FAF5ED" stroke-width="1" opacity="0.04" fill="none"/><path d="M0 280 Q150 265,300 280 T600 280" stroke="#FAF5ED" stroke-width="1" opacity="0.05" fill="none"/><path d="M0 320 Q150 310,300 320 T600 320" stroke="#FAF5ED" stroke-width="1" opacity="0.06" fill="none"/><path d="M0 360 Q150 355,300 360 T600 360" stroke="#FAF5ED" stroke-width="1" opacity="0.07" fill="none"/><path d="M0 400 Q150 400,300 400 T600 400" stroke="#FAF5ED" stroke-width="1" opacity="0.08" fill="none"/><circle cx="360.0" cy="350.0" r="4.2" fill="#FAF5ED" opacity="0.04"/><circle cx="342.4" cy="392.4" r="5.7" fill="#FAF5ED" opacity="0.05"/><circle cx="300.0" cy="410.0" r="5.5" fill="#FAF5ED" opacity="0.05"/><circle cx="257.6" cy="392.4" r="3.4" fill="#FAF5ED" opacity="0.06"/><circle cx="240.0" cy="350.0" r="6.6" fill="#FAF5ED" opacity="0.07"/><circle cx="257.6" cy="307.6" r="6.9" fill="#FAF5ED" opacity="0.05"/><circle cx="300.0" cy="290.0" r="8.1" fill="#FAF5ED" opacity="0.04"/><circle cx="342.4" cy="307.6" r="5.0" fill="#FAF5ED" opacity="0.06"/><circle cx="420.0" cy="350.0" r="8.8" fill="#FAF5ED" opacity="0.07"/><circle cx="403.9" cy="410.0" r="8.8" fill="#FAF5ED" opacity="0.08"/><circle cx="360.0" cy="453.9" r="3.8" fill="#FAF5ED" opacity="0.08"/><circle cx="300.0" cy="470.0" r="4.4" fill="#FAF5ED" opacity="0.08"/><circle cx="240.0" cy="453.9" r="6.8" fill="#FAF5ED" opacity="0.08"/><circle cx="196.1" cy="410.0" r="8.1" fill="#FAF5ED" opacity="0.06"/><circle cx="180.0" cy="350.0" r="5.4" fill="#FAF5ED" opacity="0.07"/><circle cx="196.1" cy="290.0" r="5.6" fill="#FAF5ED" opacity="0.06"/><circle cx="240.0" cy="246.1" r="7.6" fill="#FAF5ED" opacity="0.08"/><circle cx="300.0" cy="230.0" r="8.3" fill="#FAF5ED" opacity="0.05"/><circle cx="360.0" cy="246.1" r="8.7" fill="#FAF5ED" opacity="0.08"/><circle cx="403.9" cy="290.0" r="5.0" fill="#FAF5ED" opacity="0.05"/><line x1="294" y1="264" x2="263" y2="255" stroke="#FAF5ED" stroke-width="0.5" opacity="0.08"/><line x1="120" y1="612" x2="114" y2="581" stroke="#FAF5ED" stroke-width="0.5" opacity="0.06"/><line x1="409" y1="17" x2="448" y2="-16" stroke="#FAF5ED" stroke-width="0.5" opacity="0.07"/><line x1="324" y1="151" x2="336" y2="185" stroke="#FAF5ED" stroke-width="0.5" opacity="0.06"/><line x1="328" y1="508" x2="319" y2="545" stroke="#FAF5ED" stroke-width="0.5" opacity="0.08"/><line x1="201" y1="2" x2="200" y2="-5" stroke="#FAF5ED" stroke-width="0.5" opacity="0.03"/><line x1="225" y1="187" x2="213" y2="172" stroke="#FAF5ED" stroke-width="0.5" opacity="0.07"/><line x1="153" y1="656" x2="162" y2="630" stroke="#FAF5ED" stroke-width="0.5" opacity="0.06"/><line x1="387" y1="195" x2="352" y2="158" stroke="#FAF5ED" stroke-width="0.5" opacity="0.04"/><line x1="129" y1="600" x2="156" y2="623" stroke="#FAF5ED" stroke-width="0.5" opacity="0.06"/><line x1="93" y1="790" x2="133" y2="800" stroke="#FAF5ED" stroke-width="0.5" opacity="0.05"/><line x1="63" y1="686" x2="37" y2="680" stroke="#FAF5ED" stroke-width="0.5" opacity="0.06"/><line x1="226" y1="781" x2="230" y2="803" stroke="#FAF5ED" stroke-width="0.5" opacity="0.05"/><line x1="244" y1="19" x2="216" y2="-7" stroke="#FAF5ED" stroke-width="0.5" opacity="0.07"/><line x1="56" y1="731" x2="37" y2="717" stroke="#FAF5ED" stroke-width="0.5" opacity="0.03"/><line x1="522" y1="630" x2="539" y2="616" stroke="#FAF5ED" stroke-width="0.5" opacity="0.05"/><line x1="174" y1="234" x2="198" y2="194" stroke="#FAF5ED" stroke-width="0.5" opacity="0.07"/><line x1="105" y1="153" x2="92" y2="181" stroke="#FAF5ED" stroke-width="0.5" opacity="0.03"/><line x1="412" y1="576" x2="411" y2="611" stroke="#FAF5ED" stroke-width="0.5" opacity="0.07"/><line x1="267" y1="331" x2="285" y2="293" stroke="#FAF5ED" stroke-width="0.5" opacity="0.08"/><line x1="221" y1="229" x2="253" y2="191" stroke="#FAF5ED" stroke-width="0.5" opacity="0.07"/><line x1="219" y1="737" x2="256" y2="701" stroke="#FAF5ED" stroke-width="0.5" opacity="0.05"/><line x1="290" y1="463" x2="309" y2="448" stroke="#FAF5ED" stroke-width="0.5" opacity="0.06"/><line x1="572" y1="298" x2="570" y2="326" stroke="#FAF5ED" stroke-width="0.5" opacity="0.07"/><line x1="198" y1="378" x2="182" y2="413" stroke="#FAF5ED" stroke-width="0.5" opacity="0.07"/><line x1="28" y1="78" x2="-9" y2="94" stroke="#FAF5ED" stroke-width="0.5" opacity="0.06"/><line x1="337" y1="550" x2="376" y2="518" stroke="#FAF5ED" stroke-width="0.5" opacity="0.08"/><line x1="406" y1="517" x2="444" y2="492" stroke="#FAF5ED" stroke-width="0.5" opacity="0.07"/><line x1="503" y1="743" x2="518" y2="728" stroke="#FAF5ED" stroke-width="0.5" opacity="0.05"/><line x1="539" y1="715" x2="554" y2="753" stroke="#FAF5ED" stroke-width="0.5" opacity="0.07"/><line x1="37" y1="48" x2="59" y2="13" stroke="#FAF5ED" stroke-width="0.5" opacity="0.06"/><line x1="318" y1="234" x2="356" y2="213" stroke="#FAF5ED" stroke-width="0.5" opacity="0.04"/><line x1="194" y1="783" x2="165" y2="770" stroke="#FAF5ED" stroke-width="0.5" opacity="0.06"/><line x1="159" y1="186" x2="198" y2="185" stroke="#FAF5ED" stroke-width="0.5" opacity="0.07"/><line x1="393" y1="439" x2="394" y2="418" stroke="#FAF5ED" stroke-width="0.5" opacity="0.06"/>
  <rect width="600" height="800" fill="url(#overlay)"/>
  <text x="300" y="720" text-anchor="middle" font-family="Georgia,serif" font-size="28" fill="#FAF5ED" font-weight="600">Banana Fiber Crossbody</text>
  <text x="300" y="752" text-anchor="middle" font-family="system-ui,sans-serif" font-size="16" fill="#D4C5A9">Banana Fiber · Handwoven</text>
</svg>