<svg xmlns="http://www.w3.org/2000/svg" width="600" height="800" viewBox="0 0 600 800">
  <defs>
    <linearGradient id="bg" x1="0%" y1="0%" x2="50%" y2="100%">
      <stop offset="0%" stop-color="#9A8E70"/>
      <stop offset="100%" stop-color="#7A6E50"/>
    </linearGradient>
    <linearGradient id="overlay" x1="0%" y1="60%" x2="0%" y2="100%">
      <stop offset="0%" stop-color="#3D2817" stop-opacity="0"/>
      <stop offset="100%" stop-color="#2C3E36" stop-opacity="0.6"/>
    </linearGradient>
  </defs>
  <rect width="600" height="800" fill="url(#bg)"/>
  <g transform="translate(300,300) rotate(0) scale(2)">
    <path d="M0-60C-30-40,-40 0,-20 30C-10 50,0 60,0 60S10 50,20 30C40 0,30-40,0-60Z" fill="#FAF5ED" opacity="0.08"/>
    <path d="M0 60V-30" stroke="#FAF5ED" stroke-width="1.5" opacity="0.1" stroke-linecap="round"/>
    <path d="M0-10C-12-18,-18-14,-22-6" stroke="#FAF5ED" stroke-width="1" opacity="0.08" fill="none" stroke-linecap="round"/>
    <path d="M0 10C12 2,18 6,22 14" stroke="#FAF5ED" stroke-width="1" opacity="0.08" fill="none" stroke-linecap="round"/>
  </g><g transform="translate(180,450) rotate(30) scale(1.2)">
    <path d="M0-60C-30-40,-40 0,-20 30C-10 50,0 60,0 60S10 50,20 30C40 0,30-40,0-60Z" fill="#FAF5ED" opacity="0.08"/>
    <path d="M0 60V-30" stroke="#FAF5ED" stroke-width="1.5" opacity="0.1" stroke-linecap="round"/>
    <path d="M0-10C-12-18,-18-14,-22-6" stroke="#FAF5ED" stroke-width="1" opacity="0.08" fill="none" stroke-linecap="round"/>
    <path d="M0 10C12 2,18 6,22 14" stroke="#FAF5ED" stroke-width="1" opacity="0.08" fill="none" stroke-linecap="round"/>
  </g><g transform="translate(420,420) rotate(-20) scale(1)">
    <path d="M0-60C-30-40,-40 0,-20 30C-10 50,0 60,0 60S10 50,20 30C40 0,30-40,0-60Z" fill="#FAF5ED" opacity="0.08"/>
    <path d="M0 60V-30" stroke="#FAF5ED" stroke-width="1.5" opacity="0.1" stroke-linecap="round"/>
    <path d="M0-10C-12-18,-18-14,-22-6" stroke="#FAF5ED" stroke-width="1" opacity="0.08" fill="none" stroke-linecap="round"/>
    <path d="M0 10C12 2,18 6,22 14" stroke="#FAF5ED" stroke-width="1" opacity="0.08" fill="none" stroke-linecap="round"/>
  </g><line x1="167" y1="685" x2="147" y2="721" stroke="#FAF5ED" stroke-width="0.5" opacity="0.04"/><line x1="192" y1="539" x2="176" y2="577" stroke="#FAF5ED" stroke-width="0.5" opacity="0.06"/><line x1="331" y1="229" x2="303" y2="216" stroke="#FAF5ED" stroke-width="0.5" opacity="0.06"/><line x1="129" y1="446" x2="166" y2="477" stroke="#FAF5ED" stroke-width="0.5" opacity="0.07"/><line x1="587" y1="797" x2="571" y2="821" stroke="#FAF5ED" stroke-width="0.5" opacity="0.08"/><line x1="249" y1="378" x2="275" y2="352" stroke="#FAF5ED" stroke-width="0.5" opacity="0.05"/><line x1="18" y1="661" x2="-4" y2="686" stroke="#FAF5ED" stroke-width="0.5" opacity="0.04"/><line x1="131" y1="171" x2="136" y2="191" stroke="#FAF5ED" stroke-width="0.5" opacity="0.07"/><line x1="27" y1="414" x2="61" y2="384" stroke="#FAF5ED" stroke-width="0.5" opacity="0.07"/><line x1="33" y1="210" x2="16" y2="188" stroke="#FAF5ED" stroke-width="0.5" opacity="0.03"/><line x1="502" y1="255" x2="523" y2="291" stroke="#FAF5ED" stroke-width="0.5" opacity="0.03"/><line x1="496" y1="89" x2="535" y2="129" stroke="#FAF5ED" stroke-width="0.5" opacity="0.06"/><line x1="396" y1="223" x2="387" y2="196" stroke="#FAF5ED" stroke-width="0.5" opacity="0.07"/><line x1="263" y1="82" x2="287" y2="109" stroke="#FAF5ED" stroke-width="0.5" opacity="0.04"/><line x1="90" y1="442" x2="82" y2="437" stroke="#FAF5ED" stroke-width="0.5" opacity="0.07"/><line x1="237" y1="622" x2="201" y2="621" stroke="#FAF5ED" stroke-width="0.5" opacity="0.06"/><line x1="528" y1="464" x2="507" y2="450" stroke="#FAF5ED" stroke-width="0.5" opacity="0.07"/><line x1="348" y1="344" x2="361" y2="311" stroke="#FAF5ED" stroke-width="0.5" opacity="0.07"/><line x1="553" y1="380" x2="520" y2="403" stroke="#FAF5ED" stroke-width="0.5" opacity="0.03"/><line x1="167" y1="475" x2="132" y2="479" stroke="#FAF5ED" stroke-width="0.5" opacity="0.04"/><line x1="137" y1="320" x2="168" y2="290" stroke="#FAF5ED" stroke-width="0.5" opacity="0.05"/><line x1="593" y1="700" x2="604" y2="664" stroke="#FAF5ED" stroke-width="0.5" opacity="0.07"/><line x1="378" y1="53" x2="381" y2="27" stroke="#FAF5ED" stroke-width="0.5" opacity="0.05"/><line x1="145" y1="525" x2="162" y2="523" stroke="#FAF5ED" stroke-width="0.5" opacity="0.08"/><line x1="97" y1="113" x2="97" y2="119" stroke="#FAF5ED" stroke-width="0.5" opacity="0.05"/><line x1="398" y1="200" x2="374" y2="230" stroke="#FAF5ED" stroke-width="0.5" opacity="0.04"/><line x1="457" y1="342" x2="487" y2="303" stroke="#FAF5ED" stroke-width="0.5" opacity="0.06"/><line x1="566" y1="215" x2="599" y2="240" stroke="#FAF5ED" stroke-width="0.5" opacity="0.04"/><line x1="528" y1="381" x2="509" y2="349" stroke="#FAF5ED" stroke-width="0.5" opacity="0.06"/><line x1="121" y1="44" x2="94" y2="55" stroke="#FAF5ED" stroke-width="0.5" opacity="0.07"/>
  <rect width="600" height="800" fill="url(#overlay)"/>
  <text x="300" y="720" text-anchor="middle" font-family="Georgia,serif" font-size="28" fill="#FAF5ED" font-weight="600">Botanical Tote Bag</text>
  <text x="300" y="752" text-anchor="middle" font-family="system-ui,sans-serif" font-size="16" fill="#D4C5A9">Hemp Canvas · Leaf Printed</text>
</svg>