<svg xmlns="http://www.w3.org/2000/svg" width="600" height="800" viewBox="0 0 600 800">
  <defs>
    <linearGradient id="bg" x1="0%" y1="0%" x2="50%" y2="100%">
      <stop offset="0%" stop-color="#8A7E60"/>
      <stop offset="100%" stop-color="#6B6048"/>
    </linearGradient>
    <linearGradient id="overlay" x1="0%" y1="60%" x2="0%" y2="100%">
      <stop offset="0%" stop-color="#3D2817" stop-opacity="0"/>
      <stop offset="100%" stop-color="#2C3E36" stop-opacity="0.6"/>
    </linearGradient>
  </defs>
  <rect width="600" height="800" fill="url(#bg)"/>
  <line x1="311" y1="343" x2="293" y2="315" stroke="#FAF5ED" stroke-width="0.5" opacity="0.04"/><line x1="399" y1="258" x2="416" y2="281" stroke="#FAF5ED" stroke-width="0.5" opacity="0.07"/><line x1="37" y1="451" x2="48" y2="473" stroke="#FAF5ED" stroke-width="0.5" opacity="0.06"/><line x1="294" y1="596" x2="321" y2="627" stroke="#FAF5ED" stroke-width="0.5" opacity="0.07"/><line x1="261" y1="716" x2="283" y2="749" stroke="#FAF5ED" stroke-width="0.5" opacity="0.07"/><line x1="449" y1="234" x2="480" y2="215" stroke="#FAF5ED" stroke-width="0.5" opacity="0.06"/><line x1="212" y1="491" x2="230" y2="481" stroke="#FAF5ED" stroke-width="0.5" opacity="0.04"/><line x1="338" y1="233" x2="302" y2="246" stroke="#FAF5ED" stroke-width="0.5" opacity="0.07"/><line x1="264" y1="541" x2="266" y2="567" stroke="#FAF5ED" stroke-width="0.5" opacity="0.07"/><line x1="83" y1="5" x2="58" y2="22" stroke="#FAF5ED" stroke-width="0.5" opacity="0.05"/><line x1="101" y1="685" x2="64" y2="680" stroke="#FAF5ED" stroke-width="0.5" opacity="0.04"/><line x1="334" y1="596" x2="307" y2="586" stroke="#FAF5ED" stroke-width="0.5" opacity="0.07"/><line x1="482" y1="258" x2="512" y2="258" stroke="#FAF5ED" stroke-width="0.5" opacity="0.04"/><line x1="207" y1="627" x2="191" y2="666" stroke="#FAF5ED" stroke-width="0.5" opacity="0.07"/><line x1="242" y1="571" x2="259" y2="555" stroke="#FAF5ED" stroke-width="0.5" opacity="0.06"/><line x1="282" y1="408" x2="288" y2="386" stroke="#FAF5ED" stroke-width="0.5" opacity="0.07"/><line x1="139" y1="169" x2="119" y2="188" stroke="#FAF5ED" stroke-width="0.5" opacity="0.07"/><line x1="13" y1="167" x2="11" y2="154" stroke="#FAF5ED" stroke-width="0.5" opacity="0.06"/><line x1="506" y1="740" x2="489" y2="755" stroke="#FAF5ED" stroke-width="0.5" opacity="0.08"/><line x1="140" y1="700" x2="133" y2="736" stroke="#FAF5ED" stroke-width="0.5" opacity="0.07"/><line x1="37" y1="543" x2="11" y2="516" stroke="#FAF5ED" stroke-width="0.5" opacity="0.06"/><line x1="226" y1="743" x2="210" y2="754" stroke="#FAF5ED" stroke-width="0.5" opacity="0.07"/><line x1="246" y1="705" x2="283" y2="711" stroke="#FAF5ED" stroke-width="0.5" opacity="0.05"/><line x1="66" y1="61" x2="96" y2="84" stroke="#FAF5ED" stroke-width="0.5" opacity="0.04"/><line x1="434" y1="187" x2="442" y2="211" stroke="#FAF5ED" stroke-width="0.5" opacity="0.03"/><line x1="557" y1="665" x2="569" y2="692" stroke="#FAF5ED" stroke-width="0.5" opacity="0.05"/><line x1="235" y1="708" x2="229" y2="716" stroke="#FAF5ED" stroke-width="0.5" opacity="0.04"/><line x1="103" y1="521" x2="74" y2="555" stroke="#FAF5ED" stroke-width="0.5" opacity="0.05"/><line x1="561" y1="658" x2="549" y2="663" stroke="#FAF5ED" stroke-width="0.5" opacity="0.05"/><line x1="52" y1="344" x2="46" y2="342" stroke="#FAF5ED" stroke-width="0.5" opacity="0.04"/><line x1="598" y1="436" x2="592" y2="467" stroke="#FAF5ED" stroke-width="0.5" opacity="0.07"/><line x1="318" y1="567" x2="312" y2="590" stroke="#FAF5ED" stroke-width="0.5" opacity="0.03"/><line x1="312" y1="56" x2="318" y2="42" stroke="#FAF5ED" stroke-width="0.5" opacity="0.05"/><line x1="293" y1="775" x2="257" y2="755" stroke="#FAF5ED" stroke-width="0.5" opacity="0.07"/><line x1="512" y1="390" x2="490" y2="404" stroke="#FAF5ED" stroke-width="0.5" opacity="0.05"/><line x1="303" y1="475" x2="270" y2="453" stroke="#FAF5ED" stroke-width="0.5" opacity="0.07"/><line x1="213" y1="266" x2="250" y2="250" stroke="#FAF5ED" stroke-width="0.5" opacity="0.04"/><line x1="208" y1="260" x2="231" y2="235" stroke="#FAF5ED" stroke-width="0.5" opacity="0.05"/><line x1="390" y1="229" x2="353" y2="250" stroke="#FAF5ED" stroke-width="0.5" opacity="0.06"/><line x1="367" y1="489" x2="332" y2="450" stroke="#FAF5ED" stroke-width="0.5" opacity="0.03"/><g transform="translate(300,350) rotate(0) scale(1)">
    <path d="M0-60C-30-40,-40 0,-20 30C-10 50,0 60,0 60S10 50,20 30C40 0,30-40,0-60Z" fill="#FAF5ED" opacity="0.08"/>
    <path d="M0 60V-30" stroke="#FAF5ED" stroke-width="1.5" opacity="0.1" stroke-linecap="round"/>
    <path d="M0-10C-12-18,-18-14,-22-6" stroke="#FAF5ED" stroke-width="1" opacity="0.08" fill="none" stroke-linecap="round"/>
    <path d="M0 10C12 2,18 6,22 14" stroke="#FAF5ED" stroke-width="1" opacity="0.08" fill="none" stroke-linecap="round"/>
  </g><circle cx="380.0" cy="250.0" r="5.3" fill="#FAF5ED" opacity="0.09"/><circle cx="340.0" cy="319.3" r="8.8" fill="#FAF5ED" opacity="0.06"/><circle cx="260.0" cy="319.3" r="3.1" fill="#FAF5ED" opacity="0.10"/><circle cx="220.0" cy="250.0" r="3.6" fill="#FAF5ED" opacity="0.10"/><circle cx="260.0" cy="180.7" r="7.1" fill="#FAF5ED" opacity="0.05"/><circle cx="340.0" cy="180.7" r="5.1" fill="#FAF5ED" opacity="0.08"/>
  <rect width="600" height="800" fill="url(#overlay)"/>
  <text x="300" y="720" text-anchor="middle" font-family="Georgia,serif" font-size="28" fill="#FAF5ED" font-weight="600">Hemp Wide-Leg Pants</text>
  <text x="300" y="752" text-anchor="middle" font-family="system-ui,sans-serif" font-size="16" fill="#D4C5A9">Pure Hemp · Walnut Dyed</text>
</svg>