<svg xmlns="http://www.w3.org/2000/svg" width="600" height="800" viewBox="0 0 600 800">
  <defs>
    <linearGradient id="bg" x1="0%" y1="0%" x2="50%" y2="100%">
      <stop offset="0%" stop-color="#7A9A6E"/>
      <stop offset="100%" stop-color="#5A7A4E"/>
    </linearGradient>
    <linearGradient id="overlay" x1="0%" y1="60%" x2="0%" y2="100%">
      <stop offset="0%" stop-color="#3D2817" stop-opacity="0"/>
      <stop offset="100%" stop-color="#2C3E36" stop-opacity="0.6"/>
    </linearGradient>
  </defs>
  <rect width="600" height="800" fill="url(#bg)"/>
  <path d="M0 240 Q150 220,300 240 T600 240" stroke="#FAF5ED" stroke-width="1" opacity="0.04" fill="none"/><path d="M0 280 Q150 265,300 280 T600 280" stroke="#FAF5ED" stroke-width="1" opacity="0.05" fill="none"/><path d="M0 320 Q150 310,300 320 T600 320" stroke="#FAF5ED" stroke-width="1" opacity="0.06" fill="none"/><path d="M0 360 Q150 355,300 360 T600 360" stroke="#FAF5ED" stroke-width="1" opacity="0.07" fill="none"/><path d="M0 400 Q150 400,300 400 T600 400" stroke="#FAF5ED" stroke-width="1" opacity="0.08" fill="none"/><g transform="translate(200,400) rotate(20) scale(1.2)">
    <path d="M0-60C-30-40,-40 0,-20 30C-10 50,0 60,0 60S10 50,20 30C40 0,30-40,0-60Z" fill="#FAF5ED" opacity="0.08"/>
    <path d="M0 60V-30" stroke="#FAF5ED" stroke-width="1.5" opacity="0.1" stroke-linecap="round"/>
    <path d="M0-10C-12-18,-18-14,-22-6" stroke="#FAF5ED" stroke-width="1" opacity="0.08" fill="none" stroke-linecap="round"/>
    <path d="M0 10C12 2,18 6,22 14" stroke="#FAF5ED" stroke-width="1" opacity="0.08" fill="none" stroke-linecap="round"/>
  </g><g transform="translate(400,300) rotate(-25) scale(0.9)">
    <path d="M0-60C-30-40,-40 0,-20 30C-10 50,0 60,0 60S10 50,20 30C40 0,30-40,0-60Z" fill="#FAF5ED" opacity="0.08"/>
    <path d="M0 60V-30" stroke="#FAF5ED" stroke-width="1.5" opacity="0.1" stroke-linecap="round"/>
    <path d="M0-10C-12-18,-18-14,-22-6" stroke="#FAF5ED" stroke-width="1" opacity="0.08" fill="none" stroke-linecap="round"/>
    <path d="M0 10C12 2,18 6,22 14" stroke="#FAF5ED" stroke-width="1" opacity="0.08" fill="none" stroke-linecap="round"/>
  </g><line x1="54" y1="781" x2="82" y2="792" stroke="#FAF5ED" stroke-width="0.5" opacity="0.05"/><line x1="514" y1="413" x2="486" y2="445" stroke="#FAF5ED" stroke-width="0.5" opacity="0.05"/><line x1="147" y1="389" x2="148" y2="406" stroke="#FAF5ED" stroke-width="0.5" opacity="0.03"/><line x1="45" y1="276" x2="60" y2="291" stroke="#FAF5ED" stroke-width="0.5" opacity="0.05"/><line x1="265" y1="394" x2="246" y2="427" stroke="#FAF5ED" stroke-width="0.5" opacity="0.07"/><line x1="497" y1="724" x2="467" y2="687" stroke="#FAF5ED" stroke-width="0.5" opacity="0.06"/><line x1="196" y1="223" x2="183" y2="260" stroke="#FAF5ED" stroke-width="0.5" opacity="0.08"/><line x1="204" y1="794" x2="169" y2="760" stroke="#FAF5ED" stroke-width="0.5" opacity="0.08"/><line x1="155" y1="690" x2="145" y2="697" stroke="#FAF5ED" stroke-width="0.5" opacity="0.05"/><line x1="270" y1="656" x2="264" y2="671" stroke="#FAF5ED" stroke-width="0.5" opacity="0.08"/><line x1="193" y1="634" x2="197" y2="609" stroke="#FAF5ED" stroke-width="0.5" opacity="0.07"/><line x1="577" y1="177" x2="600" y2="204" stroke="#FAF5ED" stroke-width="0.5" opacity="0.05"/><line x1="9" y1="242" x2="28" y2="228" stroke="#FAF5ED" stroke-width="0.5" opacity="0.08"/><line x1="148" y1="662" x2="170" y2="681" stroke="#FAF5ED" stroke-width="0.5" opacity="0.07"/><line x1="439" y1="367" x2="426" y2="366" stroke="#FAF5ED" stroke-width="0.5" opacity="0.04"/>
  <rect width="600" height="800" fill="url(#overlay)"/>
  <text x="300" y="720" text-anchor="middle" font-family="Georgia,serif" font-size="28" fill="#FAF5ED" font-weight="600">Bamboo Lounge Pants</text>
  <text x="300" y="752" text-anchor="middle" font-family="system-ui,sans-serif" font-size="16" fill="#D4C5A9">Bamboo · Chlorophyll Dyed</text>
</svg>