<svg xmlns="http://www.w3.org/2000/svg" width="600" height="800" viewBox="0 0 600 800">
  <defs>
    <linearGradient id="bg" x1="0%" y1="0%" x2="50%" y2="100%">
      <stop offset="0%" stop-color="#9A7A6A"/>
      <stop offset="100%" stop-color="#7A5A4A"/>
    </linearGradient>
    <linearGradient id="overlay" x1="0%" y1="60%" x2="0%" y2="100%">
      <stop offset="0%" stop-color="#3D2817" stop-opacity="0"/>
      <stop offset="100%" stop-color="#2C3E36" stop-opacity="0.6"/>
    </linearGradient>
  </defs>
  <rect width="600" height="800" fill="url(#bg)"/>
  <g transform="translate(220,350) rotate(15) scale(1.3)">
    <path d="M0-60C-30-40,-40 0,-20 30C-10 50,0 60,0 60S10 50,20 30C40 0,30-40,0-60Z" fill="#FAF5ED" opacity="0.08"/>
    <path d="M0 60V-30" stroke="#FAF5ED" stroke-width="1.5" opacity="0.1" stroke-linecap="round"/>
    <path d="M0-10C-12-18,-18-14,-22-6" stroke="#FAF5ED" stroke-width="1" opacity="0.08" fill="none" stroke-linecap="round"/>
    <path d="M0 10C12 2,18 6,22 14" stroke="#FAF5ED" stroke-width="1" opacity="0.08" fill="none" stroke-linecap="round"/>
  </g><g transform="translate(380,350) rotate(-15) scale(1.3)">
    <path d="M0-60C-30-40,-40 0,-20 30C-10 50,0 60,0 60S10 50,20 30C40 0,30-40,0-60Z" fill="#FAF5ED" opacity="0.08"/>
    <path d="M0 60V-30" stroke="#FAF5ED" stroke-width="1.5" opacity="0.1" stroke-linecap="round"/>
    <path d="M0-10C-12-18,-18-14,-22-6" stroke="#FAF5ED" stroke-width="1" opacity="0.08" fill="none" stroke-linecap="round"/>
    <path d="M0 10C12 2,18 6,22 14" stroke="#FAF5ED" stroke-width="1" opacity="0.08" fill="none" stroke-linecap="round"/>
  </g><circle cx="400.0" cy="400.0" r="4.1" fill="#FAF5ED" opacity="0.09"/><circle cx="380.9" cy="458.8" r="4.7" fill="#FAF5ED" opacity="0.06"/><circle cx="330.9" cy="495.1" r="7.2" fill="#FAF5ED" opacity="0.05"/><circle cx="269.1" cy="495.1" r="3.2" fill="#FAF5ED" opacity="0.10"/><circle cx="219.1" cy="458.8" r="6.7" fill="#FAF5ED" opacity="0.06"/><circle cx="200.0" cy="400.0" r="7.2" fill="#FAF5ED" opacity="0.08"/><circle cx="219.1" cy="341.2" r="7.2" fill="#FAF5ED" opacity="0.04"/><circle cx="269.1" cy="304.9" r="3.2" fill="#FAF5ED" opacity="0.08"/><circle cx="330.9" cy="304.9" r="8.4" fill="#FAF5ED" opacity="0.05"/><circle cx="380.9" cy="341.2" r="6.6" fill="#FAF5ED" opacity="0.07"/>
  <rect width="600" height="800" fill="url(#overlay)"/>
  <text x="300" y="720" text-anchor="middle" font-family="Georgia,serif" font-size="28" fill="#FAF5ED" font-weight="600">Couple / Partner Outfits</text>
  <text x="300" y="752" text-anchor="middle" font-family="system-ui,sans-serif" font-size="16" fill="#D4C5A9">Coming Soon</text>
</svg>