<svg xmlns="http://www.w3.org/2000/svg" width="600" height="800" viewBox="0 0 600 800">
  <defs>
    <linearGradient id="d2-bg" x1="0%" y1="0%" x2="30%" y2="100%">
      <stop offset="0%" stop-color="#E8DFD0"/>
      <stop offset="50%" stop-color="#DDD4C4"/>
      <stop offset="100%" stop-color="#D4C9B8"/>
    </linearGradient>
    <pattern id="d2-linen" x="0" y="0" width="8" height="8" patternUnits="userSpaceOnUse">
      <line x1="0" y1="4" x2="8" y2="4" stroke="#C8B89A" stroke-width="0.3" opacity="0.3"/>
      <line x1="4" y1="0" x2="4" y2="8" stroke="#C8B89A" stroke-width="0.25" opacity="0.22"/>
    </pattern>
  </defs>
  <rect width="600" height="800" fill="url(#d2-bg)"/>
  <rect width="600" height="800" fill="url(#d2-linen)"/>
  <rect x="70" y="100" width="80" height="110" rx="3" fill="#B8A890" opacity="0.12"/>
  <rect x="450" y="120" width="70" height="95" rx="3" fill="#A89880" opacity="0.10"/>
  <path d="M220 190 L210 170 L195 162 L185 168 L198 182 L185 640 L230 660 L300 672 L370 660 L415 640 L402 182 L415 168 L405 162 L390 170 L380 190 L355 180 L300 175 L245 180 Z" fill="#F0E8D8" stroke="#C8B89A" stroke-width="1"/>
  <path d="M245 180 Q270 165 300 162 Q330 165 355 180" fill="none" stroke="#A0522D" stroke-width="2.5" stroke-dasharray="4 3"/>
  <path d="M250 185 Q272 172 300 169 Q328 172 350 185" fill="none" stroke="#A0522D" stroke-width="1.5" stroke-dasharray="3 4" opacity="0.6"/>
  <line x1="195" y1="520" x2="195" y2="640" stroke="#A0522D" stroke-width="1.8" stroke-dasharray="5 4"/>
  <circle cx="195" cy="540" r="2.5" fill="#A0522D" opacity="0.7"/>
  <circle cx="195" cy="570" r="2.5" fill="#A0522D" opacity="0.7"/>
  <circle cx="195" cy="600" r="2.5" fill="#A0522D" opacity="0.7"/>
  <circle cx="195" cy="630" r="2.5" fill="#A0522D" opacity="0.7"/>
  <line x1="405" y1="520" x2="405" y2="640" stroke="#A0522D" stroke-width="1.8" stroke-dasharray="5 4"/>
  <circle cx="405" cy="540" r="2.5" fill="#A0522D" opacity="0.7"/>
  <circle cx="405" cy="570" r="2.5" fill="#A0522D" opacity="0.7"/>
  <circle cx="405" cy="600" r="2.5" fill="#A0522D" opacity="0.7"/>
  <circle cx="405" cy="630" r="2.5" fill="#A0522D" opacity="0.7"/>
  <path d="M340 440 L340 500 Q340 510 350 510 L380 510 Q390 510 390 500 L390 440" fill="none" stroke="#C8B89A" stroke-width="0.8" opacity="0.5"/>
</svg>