<svg xmlns="http://www.w3.org/2000/svg" width="600" height="800" viewBox="0 0 600 800">
  <defs>
    <linearGradient id="d1-bg" x1="0%" y1="0%" x2="30%" y2="100%">
      <stop offset="0%" stop-color="#3A3A38"/>
      <stop offset="50%" stop-color="#2E2E2C"/>
      <stop offset="100%" stop-color="#252523"/>
    </linearGradient>
    <pattern id="d1-fabric" x="0" y="0" width="6" height="6" patternUnits="userSpaceOnUse">
      <line x1="0" y1="3" x2="6" y2="3" stroke="#4A4A46" stroke-width="0.3" opacity="0.3"/>
      <line x1="3" y1="0" x2="3" y2="6" stroke="#4A4A46" stroke-width="0.2" opacity="0.2"/>
    </pattern>
  </defs>
  <rect width="600" height="800" fill="url(#d1-bg)"/>
  <rect width="600" height="800" fill="url(#d1-fabric)"/>
  <ellipse cx="200" cy="250" rx="250" ry="300" fill="#5A4A3A" opacity="0.08"/>
  <ellipse cx="450" cy="400" rx="200" ry="280" fill="#4A5A4A" opacity="0.05"/>
  <path d="M220 180 L210 160 L195 152 L185 158 L198 172 L190 620 L230 650 L300 665 L370 650 L410 620 L402 172 L415 158 L405 152 L390 160 L380 180 L355 170 L300 165 L245 170 Z" fill="#2A2A28" stroke="#3E3E3A" stroke-width="1.2"/>
  <path d="M245 170 Q270 155 300 152 Q330 155 355 170" fill="none" stroke="#4A4A46" stroke-width="1.5"/>
  <path d="M225 420 L225 480 Q225 490 235 490 L265 490 Q275 490 275 480 L275 420" fill="none" stroke="#3E3E3A" stroke-width="0.8" opacity="0.5"/>
  <path d="M325 420 L325 480 Q325 490 335 490 L365 490 Q375 490 375 480 L375 420" fill="none" stroke="#3E3E3A" stroke-width="0.8" opacity="0.5"/>
  <g opacity="0.04">
    <rect x="80" y="120" width="60" height="200" rx="4" fill="#6A8A5A"/>
    <rect x="460" y="80" width="50" height="180" rx="4" fill="#5A7A4A"/>
    <rect x="500" y="160" width="40" height="140" rx="4" fill="#4A6A3A"/>
  </g>
</svg>