<svg xmlns="http://www.w3.org/2000/svg" width="600" height="800" viewBox="0 0 600 800">
  <defs>
    <linearGradient id="bg" x1="0%" y1="0%" x2="50%" y2="100%">
      <stop offset="0%" stop-color="#4A6A7A"/>
      <stop offset="100%" stop-color="#3D5A6A"/>
    </linearGradient>
    <linearGradient id="overlay" x1="0%" y1="60%" x2="0%" y2="100%">
      <stop offset="0%" stop-color="#3D2817" stop-opacity="0"/>
      <stop offset="100%" stop-color="#2C3E36" stop-opacity="0.6"/>
    </linearGradient>
  </defs>
  <rect width="600" height="800" fill="url(#bg)"/>
  <path d="M0 240 Q150 220,300 240 T600 240" stroke="#FAF5ED" stroke-width="1" opacity="0.04" fill="none"/><path d="M0 280 Q150 265,300 280 T600 280" stroke="#FAF5ED" stroke-width="1" opacity="0.05" fill="none"/><path d="M0 320 Q150 310,300 320 T600 320" stroke="#FAF5ED" stroke-width="1" opacity="0.06" fill="none"/><path d="M0 360 Q150 355,300 360 T600 360" stroke="#FAF5ED" stroke-width="1" opacity="0.07" fill="none"/><path d="M0 400 Q150 400,300 400 T600 400" stroke="#FAF5ED" stroke-width="1" opacity="0.08" fill="none"/><g transform="translate(300,250) rotate(0) scale(1.2)">
    <path d="M0-60C-30-40,-40 0,-20 30C-10 50,0 60,0 60S10 50,20 30C40 0,30-40,0-60Z" fill="#FAF5ED" opacity="0.08"/>
    <path d="M0 60V-30" stroke="#FAF5ED" stroke-width="1.5" opacity="0.1" stroke-linecap="round"/>
    <path d="M0-10C-12-18,-18-14,-22-6" stroke="#FAF5ED" stroke-width="1" opacity="0.08" fill="none" stroke-linecap="round"/>
    <path d="M0 10C12 2,18 6,22 14" stroke="#FAF5ED" stroke-width="1" opacity="0.08" fill="none" stroke-linecap="round"/>
  </g><circle cx="420.0" cy="400.0" r="6.2" fill="#FAF5ED" opacity="0.09"/><circle cx="397.1" cy="470.5" r="6.3" fill="#FAF5ED" opacity="0.07"/><circle cx="337.1" cy="514.1" r="6.2" fill="#FAF5ED" opacity="0.08"/><circle cx="262.9" cy="514.1" r="8.7" fill="#FAF5ED" opacity="0.07"/><circle cx="202.9" cy="470.5" r="5.1" fill="#FAF5ED" opacity="0.08"/><circle cx="180.0" cy="400.0" r="3.8" fill="#FAF5ED" opacity="0.09"/><circle cx="202.9" cy="329.5" r="5.5" fill="#FAF5ED" opacity="0.08"/><circle cx="262.9" cy="285.9" r="4.7" fill="#FAF5ED" opacity="0.08"/><circle cx="337.1" cy="285.9" r="8.4" fill="#FAF5ED" opacity="0.07"/><circle cx="397.1" cy="329.5" r="3.8" fill="#FAF5ED" opacity="0.06"/>
  <rect width="600" height="800" fill="url(#overlay)"/>
  <text x="300" y="720" text-anchor="middle" font-family="Georgia,serif" font-size="28" fill="#FAF5ED" font-weight="600">Earthy Tunic Shirt</text>
  <text x="300" y="752" text-anchor="middle" font-family="system-ui,sans-serif" font-size="16" fill="#D4C5A9">Bamboo Fabric · Natural Indigo</text>
</svg>