<svg xmlns="http://www.w3.org/2000/svg" width="1920" height="1080" viewBox="0 0 1920 1080">
  <defs>
    <linearGradient id="bg" x1="0%" y1="0%" x2="50%" y2="100%">
      <stop offset="0%" stop-color="#E8DFD0"/>
      <stop offset="50%" stop-color="#F5F0E8"/>
      <stop offset="100%" stop-color="#FAF5ED"/>
    </linearGradient>
    <radialGradient id="glow1" cx="20%" cy="30%" r="40%">
      <stop offset="0%" stop-color="#3D6B5A" stop-opacity="0.08"/>
      <stop offset="100%" stop-color="#3D6B5A" stop-opacity="0"/>
    </radialGradient>
    <radialGradient id="glow2" cx="75%" cy="60%" r="35%">
      <stop offset="0%" stop-color="#B8705A" stop-opacity="0.06"/>
      <stop offset="100%" stop-color="#B8705A" stop-opacity="0"/>
    </radialGradient>
  </defs>
  <rect width="1920" height="1080" fill="url(#bg)"/>
  <rect width="1920" height="1080" fill="url(#glow1)"/>
  <rect width="1920" height="1080" fill="url(#glow2)"/>
  <g transform="translate(250,300) rotate(15) scale(3)">
    <path d="M0-60C-30-40,-40 0,-20 30C-10 50,0 60,0 60S10 50,20 30C40 0,30-40,0-60Z" fill="#FAF5ED" opacity="0.08"/>
    <path d="M0 60V-30" stroke="#FAF5ED" stroke-width="1.5" opacity="0.1" stroke-linecap="round"/>
    <path d="M0-10C-12-18,-18-14,-22-6" stroke="#FAF5ED" stroke-width="1" opacity="0.08" fill="none" stroke-linecap="round"/>
    <path d="M0 10C12 2,18 6,22 14" stroke="#FAF5ED" stroke-width="1" opacity="0.08" fill="none" stroke-linecap="round"/>
  </g>
  <g transform="translate(1650,250) rotate(-20) scale(2.5)">
    <path d="M0-60C-30-40,-40 0,-20 30C-10 50,0 60,0 60S10 50,20 30C40 0,30-40,0-60Z" fill="#FAF5ED" opacity="0.08"/>
    <path d="M0 60V-30" stroke="#FAF5ED" stroke-width="1.5" opacity="0.1" stroke-linecap="round"/>
    <path d="M0-10C-12-18,-18-14,-22-6" stroke="#FAF5ED" stroke-width="1" opacity="0.08" fill="none" stroke-linecap="round"/>
    <path d="M0 10C12 2,18 6,22 14" stroke="#FAF5ED" stroke-width="1" opacity="0.08" fill="none" stroke-linecap="round"/>
  </g>
  <g transform="translate(800,600) rotate(10) scale(2)">
    <path d="M0 80V-60" stroke="#FAF5ED" stroke-width="2" opacity="0.1" stroke-linecap="round"/>
    <path d="M0 -50C-25 -65,-35 -55,-20 -45" stroke="#FAF5ED" stroke-width="1.2" opacity="0.07" fill="none" stroke-linecap="round"/>
    <path d="M0 -30C25 -45,35 -35,20 -25" stroke="#FAF5ED" stroke-width="1.2" opacity="0.07" fill="none" stroke-linecap="round"/>
    <path d="M0 -10C-25 -25,-35 -15,-20 -5" stroke="#FAF5ED" stroke-width="1.2" opacity="0.07" fill="none" stroke-linecap="round"/>
    <path d="M0 10C25 -5,35 5,20 15" stroke="#FAF5ED" stroke-width="1.2" opacity="0.07" fill="none" stroke-linecap="round"/>
    <path d="M0 30C-25 15,-35 25,-20 35" stroke="#FAF5ED" stroke-width="1.2" opacity="0.07" fill="none" stroke-linecap="round"/>
    <path d="M0 50C25 35,35 45,20 55" stroke="#FAF5ED" stroke-width="1.2" opacity="0.07" fill="none" stroke-linecap="round"/>
  </g>
  <g transform="translate(1400,400) rotate(-15) scale(1.8)">
    <path d="M0 80V-60" stroke="#FAF5ED" stroke-width="2" opacity="0.1" stroke-linecap="round"/>
    <path d="M0 -50C-25 -65,-35 -55,-20 -45" stroke="#FAF5ED" stroke-width="1.2" opacity="0.07" fill="none" stroke-linecap="round"/>
    <path d="M0 -30C25 -45,35 -35,20 -25" stroke="#FAF5ED" stroke-width="1.2" opacity="0.07" fill="none" stroke-linecap="round"/>
    <path d="M0 -10C-25 -25,-35 -15,-20 -5" stroke="#FAF5ED" stroke-width="1.2" opacity="0.07" fill="none" stroke-linecap="round"/>
    <path d="M0 10C25 -5,35 5,20 15" stroke="#FAF5ED" stroke-width="1.2" opacity="0.07" fill="none" stroke-linecap="round"/>
    <path d="M0 30C-25 15,-35 25,-20 35" stroke="#FAF5ED" stroke-width="1.2" opacity="0.07" fill="none" stroke-linecap="round"/>
    <path d="M0 50C25 35,35 45,20 55" stroke="#FAF5ED" stroke-width="1.2" opacity="0.07" fill="none" stroke-linecap="round"/>
  </g>
  <g transform="translate(500,800) rotate(35) scale(2)">
    <path d="M0-60C-30-40,-40 0,-20 30C-10 50,0 60,0 60S10 50,20 30C40 0,30-40,0-60Z" fill="#FAF5ED" opacity="0.08"/>
    <path d="M0 60V-30" stroke="#FAF5ED" stroke-width="1.5" opacity="0.1" stroke-linecap="round"/>
    <path d="M0-10C-12-18,-18-14,-22-6" stroke="#FAF5ED" stroke-width="1" opacity="0.08" fill="none" stroke-linecap="round"/>
    <path d="M0 10C12 2,18 6,22 14" stroke="#FAF5ED" stroke-width="1" opacity="0.08" fill="none" stroke-linecap="round"/>
  </g>
  <g transform="translate(1200,750) rotate(-30) scale(1.5)">
    <path d="M0-60C-30-40,-40 0,-20 30C-10 50,0 60,0 60S10 50,20 30C40 0,30-40,0-60Z" fill="#FAF5ED" opacity="0.08"/>
    <path d="M0 60V-30" stroke="#FAF5ED" stroke-width="1.5" opacity="0.1" stroke-linecap="round"/>
    <path d="M0-10C-12-18,-18-14,-22-6" stroke="#FAF5ED" stroke-width="1" opacity="0.08" fill="none" stroke-linecap="round"/>
    <path d="M0 10C12 2,18 6,22 14" stroke="#FAF5ED" stroke-width="1" opacity="0.08" fill="none" stroke-linecap="round"/>
  </g>
  <circle cx="1260.0" cy="540.0" r="8.6" fill="#FAF5ED" opacity="0.05"/><circle cx="1245.3" cy="632.7" r="5.3" fill="#FAF5ED" opacity="0.06"/><circle cx="1202.7" cy="716.3" r="5.8" fill="#FAF5ED" opacity="0.04"/><circle cx="1136.3" cy="782.7" r="7.2" fill="#FAF5ED" opacity="0.07"/><circle cx="1052.7" cy="825.3" r="7.9" fill="#FAF5ED" opacity="0.08"/><circle cx="960.0" cy="840.0" r="8.7" fill="#FAF5ED" opacity="0.09"/><circle cx="867.3" cy="825.3" r="6.1" fill="#FAF5ED" opacity="0.08"/><circle cx="783.7" cy="782.7" r="6.7" fill="#FAF5ED" opacity="0.07"/><circle cx="717.3" cy="716.3" r="4.0" fill="#FAF5ED" opacity="0.06"/><circle cx="674.7" cy="632.7" r="8.4" fill="#FAF5ED" opacity="0.09"/><circle cx="660.0" cy="540.0" r="7.9" fill="#FAF5ED" opacity="0.04"/><circle cx="674.7" cy="447.3" r="5.3" fill="#FAF5ED" opacity="0.06"/><circle cx="717.3" cy="363.7" r="8.0" fill="#FAF5ED" opacity="0.05"/><circle cx="783.7" cy="297.3" r="4.5" fill="#FAF5ED" opacity="0.09"/><circle cx="867.3" cy="254.7" r="6.0" fill="#FAF5ED" opacity="0.07"/><circle cx="960.0" cy="240.0" r="4.9" fill="#FAF5ED" opacity="0.09"/><circle cx="1052.7" cy="254.7" r="5.0" fill="#FAF5ED" opacity="0.07"/><circle cx="1136.3" cy="297.3" r="4.7" fill="#FAF5ED" opacity="0.10"/><circle cx="1202.7" cy="363.7" r="5.5" fill="#FAF5ED" opacity="0.06"/><circle cx="1245.3" cy="447.3" r="6.5" fill="#FAF5ED" opacity="0.06"/>
  <circle cx="550.0" cy="300.0" r="9.0" fill="#FAF5ED" opacity="0.07"/><circle cx="521.4" cy="388.2" r="5.6" fill="#FAF5ED" opacity="0.07"/><circle cx="446.4" cy="442.7" r="5.9" fill="#FAF5ED" opacity="0.05"/><circle cx="353.6" cy="442.7" r="8.1" fill="#FAF5ED" opacity="0.06"/><circle cx="278.6" cy="388.2" r="3.5" fill="#FAF5ED" opacity="0.05"/><circle cx="250.0" cy="300.0" r="5.9" fill="#FAF5ED" opacity="0.05"/><circle cx="278.6" cy="211.8" r="7.7" fill="#FAF5ED" opacity="0.06"/><circle cx="353.6" cy="157.3" r="6.3" fill="#FAF5ED" opacity="0.09"/><circle cx="446.4" cy="157.3" r="5.5" fill="#FAF5ED" opacity="0.07"/><circle cx="521.4" cy="211.8" r="8.5" fill="#FAF5ED" opacity="0.09"/>
  <circle cx="1680.0" cy="700.0" r="8.9" fill="#FAF5ED" opacity="0.05"/><circle cx="1655.9" cy="790.0" r="3.3" fill="#FAF5ED" opacity="0.09"/><circle cx="1590.0" cy="855.9" r="6.6" fill="#FAF5ED" opacity="0.09"/><circle cx="1500.0" cy="880.0" r="3.1" fill="#FAF5ED" opacity="0.05"/><circle cx="1410.0" cy="855.9" r="4.9" fill="#FAF5ED" opacity="0.09"/><circle cx="1344.1" cy="790.0" r="8.2" fill="#FAF5ED" opacity="0.09"/><circle cx="1320.0" cy="700.0" r="3.5" fill="#FAF5ED" opacity="0.05"/><circle cx="1344.1" cy="610.0" r="7.6" fill="#FAF5ED" opacity="0.05"/><circle cx="1410.0" cy="544.1" r="6.6" fill="#FAF5ED" opacity="0.05"/><circle cx="1500.0" cy="520.0" r="5.3" fill="#FAF5ED" opacity="0.10"/><circle cx="1590.0" cy="544.1" r="7.6" fill="#FAF5ED" opacity="0.08"/><circle cx="1655.9" cy="610.0" r="3.2" fill="#FAF5ED" opacity="0.09"/>
  <line x1="1051" y1="549" x2="1083" y2="581" stroke="#FAF5ED" stroke-width="0.5" opacity="0.03"/><line x1="636" y1="433" x2="634" y2="405" stroke="#FAF5ED" stroke-width="0.5" opacity="0.03"/><line x1="522" y1="69" x2="508" y2="95" stroke="#FAF5ED" stroke-width="0.5" opacity="0.08"/><line x1="444" y1="213" x2="450" y2="189" stroke="#FAF5ED" stroke-width="0.5" opacity="0.08"/><line x1="859" y1="621" x2="827" y2="582" stroke="#FAF5ED" stroke-width="0.5" opacity="0.04"/><line x1="659" y1="804" x2="689" y2="786" stroke="#FAF5ED" stroke-width="0.5" opacity="0.07"/><line x1="654" y1="1022" x2="672" y2="1034" stroke="#FAF5ED" stroke-width="0.5" opacity="0.06"/><line x1="1277" y1="875" x2="1304" y2="853" stroke="#FAF5ED" stroke-width="0.5" opacity="0.06"/><line x1="1333" y1="691" x2="1337" y2="729" stroke="#FAF5ED" stroke-width="0.5" opacity="0.06"/><line x1="53" y1="852" x2="38" y2="882" stroke="#FAF5ED" stroke-width="0.5" opacity="0.05"/><line x1="388" y1="309" x2="404" y2="286" stroke="#FAF5ED" stroke-width="0.5" opacity="0.05"/><line x1="788" y1="868" x2="753" y2="894" stroke="#FAF5ED" stroke-width="0.5" opacity="0.06"/><line x1="715" y1="349" x2="714" y2="322" stroke="#FAF5ED" stroke-width="0.5" opacity="0.07"/><line x1="17" y1="447" x2="-15" y2="435" stroke="#FAF5ED" stroke-width="0.5" opacity="0.07"/><line x1="984" y1="689" x2="966" y2="662" stroke="#FAF5ED" stroke-width="0.5" opacity="0.07"/><line x1="1160" y1="17" x2="1168" y2="9" stroke="#FAF5ED" stroke-width="0.5" opacity="0.06"/><line x1="1286" y1="622" x2="1304" y2="644" stroke="#FAF5ED" stroke-width="0.5" opacity="0.04"/><line x1="122" y1="349" x2="160" y2="371" stroke="#FAF5ED" stroke-width="0.5" opacity="0.05"/><line x1="1165" y1="345" x2="1189" y2="350" stroke="#FAF5ED" stroke-width="0.5" opacity="0.08"/><line x1="200" y1="916" x2="207" y2="915" stroke="#FAF5ED" stroke-width="0.5" opacity="0.07"/><line x1="1887" y1="676" x2="1848" y2="693" stroke="#FAF5ED" stroke-width="0.5" opacity="0.04"/><line x1="1371" y1="909" x2="1335" y2="923" stroke="#FAF5ED" stroke-width="0.5" opacity="0.07"/><line x1="258" y1="561" x2="247" y2="586" stroke="#FAF5ED" stroke-width="0.5" opacity="0.03"/><line x1="1014" y1="424" x2="980" y2="432" stroke="#FAF5ED" stroke-width="0.5" opacity="0.05"/><line x1="1693" y1="949" x2="1697" y2="923" stroke="#FAF5ED" stroke-width="0.5" opacity="0.06"/><line x1="1659" y1="517" x2="1640" y2="481" stroke="#FAF5ED" stroke-width="0.5" opacity="0.03"/><line x1="1421" y1="866" x2="1460" y2="866" stroke="#FAF5ED" stroke-width="0.5" opacity="0.07"/><line x1="920" y1="778" x2="959" y2="763" stroke="#FAF5ED" stroke-width="0.5" opacity="0.07"/><line x1="1175" y1="978" x2="1155" y2="1016" stroke="#FAF5ED" stroke-width="0.5" opacity="0.04"/><line x1="1209" y1="152" x2="1203" y2="148" stroke="#FAF5ED" stroke-width="0.5" opacity="0.05"/><line x1="332" y1="735" x2="339" y2="727" stroke="#FAF5ED" stroke-width="0.5" opacity="0.05"/><line x1="814" y1="550" x2="774" y2="539" stroke="#FAF5ED" stroke-width="0.5" opacity="0.05"/><line x1="527" y1="1044" x2="510" y2="1068" stroke="#FAF5ED" stroke-width="0.5" opacity="0.04"/><line x1="1349" y1="80" x2="1346" y2="55" stroke="#FAF5ED" stroke-width="0.5" opacity="0.08"/><line x1="1234" y1="520" x2="1226" y2="490" stroke="#FAF5ED" stroke-width="0.5" opacity="0.03"/><line x1="518" y1="578" x2="554" y2="566" stroke="#FAF5ED" stroke-width="0.5" opacity="0.07"/><line x1="147" y1="877" x2="143" y2="898" stroke="#FAF5ED" stroke-width="0.5" opacity="0.06"/><line x1="382" y1="874" x2="351" y2="883" stroke="#FAF5ED" stroke-width="0.5" opacity="0.05"/><line x1="1772" y1="566" x2="1736" y2="545" stroke="#FAF5ED" stroke-width="0.5" opacity="0.05"/><line x1="542" y1="1002" x2="518" y2="991" stroke="#FAF5ED" stroke-width="0.5" opacity="0.04"/><line x1="1505" y1="138" x2="1524" y2="164" stroke="#FAF5ED" stroke-width="0.5" opacity="0.04"/><line x1="565" y1="483" x2="569" y2="508" stroke="#FAF5ED" stroke-width="0.5" opacity="0.08"/><line x1="98" y1="831" x2="82" y2="862" stroke="#FAF5ED" stroke-width="0.5" opacity="0.08"/><line x1="858" y1="715" x2="865" y2="717" stroke="#FAF5ED" stroke-width="0.5" opacity="0.05"/><line x1="563" y1="101" x2="592" y2="140" stroke="#FAF5ED" stroke-width="0.5" opacity="0.06"/><line x1="854" y1="715" x2="889" y2="689" stroke="#FAF5ED" stroke-width="0.5" opacity="0.04"/><line x1="627" y1="993" x2="614" y2="1011" stroke="#FAF5ED" stroke-width="0.5" opacity="0.03"/><line x1="898" y1="306" x2="892" y2="296" stroke="#FAF5ED" stroke-width="0.5" opacity="0.03"/><line x1="911" y1="324" x2="925" y2="344" stroke="#FAF5ED" stroke-width="0.5" opacity="0.06"/><line x1="418" y1="112" x2="435" y2="140" stroke="#FAF5ED" stroke-width="0.5" opacity="0.07"/><line x1="864" y1="518" x2="901" y2="552" stroke="#FAF5ED" stroke-width="0.5" opacity="0.03"/><line x1="1660" y1="862" x2="1673" y2="878" stroke="#FAF5ED" stroke-width="0.5" opacity="0.03"/><line x1="407" y1="401" x2="428" y2="366" stroke="#FAF5ED" stroke-width="0.5" opacity="0.05"/><line x1="1073" y1="571" x2="1048" y2="604" stroke="#FAF5ED" stroke-width="0.5" opacity="0.07"/><line x1="1331" y1="945" x2="1366" y2="937" stroke="#FAF5ED" stroke-width="0.5" opacity="0.05"/><line x1="410" y1="440" x2="397" y2="477" stroke="#FAF5ED" stroke-width="0.5" opacity="0.04"/><line x1="346" y1="145" x2="315" y2="151" stroke="#FAF5ED" stroke-width="0.5" opacity="0.06"/><line x1="1400" y1="616" x2="1377" y2="633" stroke="#FAF5ED" stroke-width="0.5" opacity="0.06"/><line x1="1588" y1="1058" x2="1585" y2="1038" stroke="#FAF5ED" stroke-width="0.5" opacity="0.07"/><line x1="618" y1="282" x2="597" y2="321" stroke="#FAF5ED" stroke-width="0.5" opacity="0.05"/>
</svg>