<svg xmlns="http://www.w3.org/2000/svg" width="600" height="800" viewBox="0 0 600 800">
  <defs>
    <linearGradient id="bg" x1="0%" y1="0%" x2="50%" y2="100%">
      <stop offset="0%" stop-color="#9A8A70"/>
      <stop offset="100%" stop-color="#7A6A50"/>
    </linearGradient>
    <linearGradient id="overlay" x1="0%" y1="60%" x2="0%" y2="100%">
      <stop offset="0%" stop-color="#3D2817" stop-opacity="0"/>
      <stop offset="100%" stop-color="#2C3E36" stop-opacity="0.6"/>
    </linearGradient>
  </defs>
  <rect width="600" height="800" fill="url(#bg)"/>
  <g transform="translate(300,350) rotate(0) scale(1.5)">
    <path d="M0-60C-30-40,-40 0,-20 30C-10 50,0 60,0 60S10 50,20 30C40 0,30-40,0-60Z" fill="#FAF5ED" opacity="0.08"/>
    <path d="M0 60V-30" stroke="#FAF5ED" stroke-width="1.5" opacity="0.1" stroke-linecap="round"/>
    <path d="M0-10C-12-18,-18-14,-22-6" stroke="#FAF5ED" stroke-width="1" opacity="0.08" fill="none" stroke-linecap="round"/>
    <path d="M0 10C12 2,18 6,22 14" stroke="#FAF5ED" stroke-width="1" opacity="0.08" fill="none" stroke-linecap="round"/>
  </g><circle cx="400.0" cy="350.0" r="8.6" fill="#FAF5ED" opacity="0.04"/><circle cx="370.7" cy="420.7" r="5.4" fill="#FAF5ED" opacity="0.09"/><circle cx="300.0" cy="450.0" r="5.3" fill="#FAF5ED" opacity="0.08"/><circle cx="229.3" cy="420.7" r="5.1" fill="#FAF5ED" opacity="0.06"/><circle cx="200.0" cy="350.0" r="5.3" fill="#FAF5ED" opacity="0.07"/><circle cx="229.3" cy="279.3" r="4.7" fill="#FAF5ED" opacity="0.08"/><circle cx="300.0" cy="250.0" r="3.7" fill="#FAF5ED" opacity="0.07"/><circle cx="370.7" cy="279.3" r="8.8" fill="#FAF5ED" opacity="0.08"/><line x1="232" y1="655" x2="212" y2="683" stroke="#FAF5ED" stroke-width="0.5" opacity="0.06"/><line x1="435" y1="789" x2="462" y2="785" stroke="#FAF5ED" stroke-width="0.5" opacity="0.06"/><line x1="30" y1="775" x2="69" y2="811" stroke="#FAF5ED" stroke-width="0.5" opacity="0.06"/><line x1="45" y1="343" x2="77" y2="380" stroke="#FAF5ED" stroke-width="0.5" opacity="0.04"/><line x1="93" y1="783" x2="87" y2="777" stroke="#FAF5ED" stroke-width="0.5" opacity="0.06"/><line x1="393" y1="620" x2="376" y2="651" stroke="#FAF5ED" stroke-width="0.5" opacity="0.03"/><line x1="133" y1="772" x2="98" y2="810" stroke="#FAF5ED" stroke-width="0.5" opacity="0.04"/><line x1="321" y1="764" x2="304" y2="726" stroke="#FAF5ED" stroke-width="0.5" opacity="0.05"/><line x1="52" y1="60" x2="47" y2="32" stroke="#FAF5ED" stroke-width="0.5" opacity="0.04"/><line x1="235" y1="542" x2="265" y2="554" stroke="#FAF5ED" stroke-width="0.5" opacity="0.06"/><line x1="16" y1="590" x2="-4" y2="614" stroke="#FAF5ED" stroke-width="0.5" opacity="0.03"/><line x1="444" y1="589" x2="477" y2="627" stroke="#FAF5ED" stroke-width="0.5" opacity="0.06"/><line x1="330" y1="81" x2="297" y2="83" stroke="#FAF5ED" stroke-width="0.5" opacity="0.05"/><line x1="31" y1="20" x2="60" y2="56" stroke="#FAF5ED" stroke-width="0.5" opacity="0.04"/><line x1="297" y1="554" x2="294" y2="571" stroke="#FAF5ED" stroke-width="0.5" opacity="0.06"/>
  <rect width="600" height="800" fill="url(#overlay)"/>
  <text x="300" y="720" text-anchor="middle" font-family="Georgia,serif" font-size="28" fill="#FAF5ED" font-weight="600">The Founder</text>
  <text x="300" y="752" text-anchor="middle" font-family="system-ui,sans-serif" font-size="16" fill="#D4C5A9">A journey from nature to fashion</text>
</svg>