<svg xmlns="http://www.w3.org/2000/svg" width="600" height="800" viewBox="0 0 600 800">
  <defs>
    <linearGradient id="bg" x1="0%" y1="0%" x2="50%" y2="100%">
      <stop offset="0%" stop-color="#7A9A6E"/>
      <stop offset="100%" stop-color="#5A7A4E"/>
    </linearGradient>
    <linearGradient id="overlay" x1="0%" y1="60%" x2="0%" y2="100%">
      <stop offset="0%" stop-color="#3D2817" stop-opacity="0"/>
      <stop offset="100%" stop-color="#2C3E36" stop-opacity="0.6"/>
    </linearGradient>
  </defs>
  <rect width="600" height="800" fill="url(#bg)"/>
  <g transform="translate(300,350) rotate(0) scale(1.5)">
    <path d="M0 80V-60" stroke="#FAF5ED" stroke-width="2" opacity="0.1" stroke-linecap="round"/>
    <path d="M0 -50C-25 -65,-35 -55,-20 -45" stroke="#FAF5ED" stroke-width="1.2" opacity="0.07" fill="none" stroke-linecap="round"/>
    <path d="M0 -30C25 -45,35 -35,20 -25" stroke="#FAF5ED" stroke-width="1.2" opacity="0.07" fill="none" stroke-linecap="round"/>
    <path d="M0 -10C-25 -25,-35 -15,-20 -5" stroke="#FAF5ED" stroke-width="1.2" opacity="0.07" fill="none" stroke-linecap="round"/>
    <path d="M0 10C25 -5,35 5,20 15" stroke="#FAF5ED" stroke-width="1.2" opacity="0.07" fill="none" stroke-linecap="round"/>
    <path d="M0 30C-25 15,-35 25,-20 35" stroke="#FAF5ED" stroke-width="1.2" opacity="0.07" fill="none" stroke-linecap="round"/>
    <path d="M0 50C25 35,35 45,20 55" stroke="#FAF5ED" stroke-width="1.2" opacity="0.07" fill="none" stroke-linecap="round"/>
  </g><g transform="translate(450,250) rotate(-20) scale(1)">
    <path d="M0-60C-30-40,-40 0,-20 30C-10 50,0 60,0 60S10 50,20 30C40 0,30-40,0-60Z" fill="#FAF5ED" opacity="0.08"/>
    <path d="M0 60V-30" stroke="#FAF5ED" stroke-width="1.5" opacity="0.1" stroke-linecap="round"/>
    <path d="M0-10C-12-18,-18-14,-22-6" stroke="#FAF5ED" stroke-width="1" opacity="0.08" fill="none" stroke-linecap="round"/>
    <path d="M0 10C12 2,18 6,22 14" stroke="#FAF5ED" stroke-width="1" opacity="0.08" fill="none" stroke-linecap="round"/>
  </g><path d="M0 240 Q150 220,300 240 T600 240" stroke="#FAF5ED" stroke-width="1" opacity="0.04" fill="none"/><path d="M0 280 Q150 265,300 280 T600 280" stroke="#FAF5ED" stroke-width="1" opacity="0.05" fill="none"/><path d="M0 320 Q150 310,300 320 T600 320" stroke="#FAF5ED" stroke-width="1" opacity="0.06" fill="none"/><path d="M0 360 Q150 355,300 360 T600 360" stroke="#FAF5ED" stroke-width="1" opacity="0.07" fill="none"/><path d="M0 400 Q150 400,300 400 T600 400" stroke="#FAF5ED" stroke-width="1" opacity="0.08" fill="none"/>
  <rect width="600" height="800" fill="url(#overlay)"/>
  <text x="300" y="720" text-anchor="middle" font-family="Georgia,serif" font-size="28" fill="#FAF5ED" font-weight="600">Living Consciously</text>
  <text x="300" y="752" text-anchor="middle" font-family="system-ui,sans-serif" font-size="16" fill="#D4C5A9">Fashion meets mindful living</text>
</svg>