<svg xmlns="http://www.w3.org/2000/svg" width="400" height="400" viewBox="0 0 400 400">
  <defs>
    <linearGradient id="bg" x1="0%" y1="0%" x2="100%" y2="100%">
      <stop offset="0%" stop-color="#9A7A6A"/>
      <stop offset="100%" stop-color="#7A5A4A"/>
    </linearGradient>
  </defs>
  <rect width="400" height="400" fill="url(#bg)"/>
  <g transform="translate(200,200) rotate(-10) scale(1.8)">
    <path d="M0-60C-30-40,-40 0,-20 30C-10 50,0 60,0 60S10 50,20 30C40 0,30-40,0-60Z" fill="#FAF5ED" opacity="0.08"/>
    <path d="M0 60V-30" stroke="#FAF5ED" stroke-width="1.5" opacity="0.1" stroke-linecap="round"/>
    <path d="M0-10C-12-18,-18-14,-22-6" stroke="#FAF5ED" stroke-width="1" opacity="0.08" fill="none" stroke-linecap="round"/>
    <path d="M0 10C12 2,18 6,22 14" stroke="#FAF5ED" stroke-width="1" opacity="0.08" fill="none" stroke-linecap="round"/>
  </g><circle cx="260.0" cy="200.0" r="3.6" fill="#FAF5ED" opacity="0.09"/><circle cx="230.0" cy="252.0" r="8.9" fill="#FAF5ED" opacity="0.04"/><circle cx="170.0" cy="252.0" r="4.8" fill="#FAF5ED" opacity="0.05"/><circle cx="140.0" cy="200.0" r="6.7" fill="#FAF5ED" opacity="0.06"/><circle cx="170.0" cy="148.0" r="6.2" fill="#FAF5ED" opacity="0.05"/><circle cx="230.0" cy="148.0" r="8.3" fill="#FAF5ED" opacity="0.10"/>
  <text x="200" y="190" text-anchor="middle" font-family="Georgia,serif" font-size="22" fill="#FAF5ED" font-weight="600"></text>
  <text x="200" y="220" text-anchor="middle" font-family="system-ui,sans-serif" font-size="14" fill="#FAF5ED" opacity="0.7"></text>
</svg>