<svg xmlns="http://www.w3.org/2000/svg" width="400" height="400" viewBox="0 0 400 400">
  <defs>
    <linearGradient id="bg" x1="0%" y1="0%" x2="100%" y2="100%">
      <stop offset="0%" stop-color="#5A8A5E"/>
      <stop offset="100%" stop-color="#3D6040"/>
    </linearGradient>
  </defs>
  <rect width="400" height="400" fill="url(#bg)"/>
  <g transform="translate(200,180) rotate(0) scale(1.8)">
    <path d="M0 80V-60" stroke="#FAF5ED" stroke-width="2" opacity="0.1" stroke-linecap="round"/>
    <path d="M0 -50C-25 -65,-35 -55,-20 -45" stroke="#FAF5ED" stroke-width="1.2" opacity="0.07" fill="none" stroke-linecap="round"/>
    <path d="M0 -30C25 -45,35 -35,20 -25" stroke="#FAF5ED" stroke-width="1.2" opacity="0.07" fill="none" stroke-linecap="round"/>
    <path d="M0 -10C-25 -25,-35 -15,-20 -5" stroke="#FAF5ED" stroke-width="1.2" opacity="0.07" fill="none" stroke-linecap="round"/>
    <path d="M0 10C25 -5,35 5,20 15" stroke="#FAF5ED" stroke-width="1.2" opacity="0.07" fill="none" stroke-linecap="round"/>
    <path d="M0 30C-25 15,-35 25,-20 35" stroke="#FAF5ED" stroke-width="1.2" opacity="0.07" fill="none" stroke-linecap="round"/>
    <path d="M0 50C25 35,35 45,20 55" stroke="#FAF5ED" stroke-width="1.2" opacity="0.07" fill="none" stroke-linecap="round"/>
  </g><line x1="178" y1="305" x2="169" y2="301" stroke="#FAF5ED" stroke-width="0.5" opacity="0.07"/><line x1="184" y1="317" x2="173" y2="341" stroke="#FAF5ED" stroke-width="0.5" opacity="0.03"/><line x1="218" y1="302" x2="246" y2="313" stroke="#FAF5ED" stroke-width="0.5" opacity="0.06"/><line x1="217" y1="346" x2="232" y2="363" stroke="#FAF5ED" stroke-width="0.5" opacity="0.05"/><line x1="158" y1="156" x2="146" y2="180" stroke="#FAF5ED" stroke-width="0.5" opacity="0.05"/><line x1="120" y1="52" x2="108" y2="66" stroke="#FAF5ED" stroke-width="0.5" opacity="0.07"/><line x1="132" y1="106" x2="95" y2="76" stroke="#FAF5ED" stroke-width="0.5" opacity="0.05"/><line x1="239" y1="165" x2="204" y2="148" stroke="#FAF5ED" stroke-width="0.5" opacity="0.05"/><line x1="310" y1="295" x2="273" y2="305" stroke="#FAF5ED" stroke-width="0.5" opacity="0.08"/><line x1="238" y1="302" x2="224" y2="291" stroke="#FAF5ED" stroke-width="0.5" opacity="0.04"/><line x1="196" y1="362" x2="157" y2="398" stroke="#FAF5ED" stroke-width="0.5" opacity="0.05"/><line x1="387" y1="373" x2="407" y2="379" stroke="#FAF5ED" stroke-width="0.5" opacity="0.04"/><line x1="108" y1="249" x2="122" y2="283" stroke="#FAF5ED" stroke-width="0.5" opacity="0.05"/><line x1="86" y1="230" x2="113" y2="260" stroke="#FAF5ED" stroke-width="0.5" opacity="0.05"/><line x1="61" y1="112" x2="53" y2="146" stroke="#FAF5ED" stroke-width="0.5" opacity="0.05"/><line x1="243" y1="237" x2="225" y2="254" stroke="#FAF5ED" stroke-width="0.5" opacity="0.07"/><line x1="168" y1="126" x2="195" y2="97" stroke="#FAF5ED" stroke-width="0.5" opacity="0.05"/><line x1="270" y1="378" x2="230" y2="365" stroke="#FAF5ED" stroke-width="0.5" opacity="0.04"/><line x1="267" y1="382" x2="272" y2="378" stroke="#FAF5ED" stroke-width="0.5" opacity="0.05"/><line x1="384" y1="144" x2="349" y2="148" stroke="#FAF5ED" stroke-width="0.5" opacity="0.07"/>
  <text x="200" y="190" text-anchor="middle" font-family="Georgia,serif" font-size="22" fill="#FAF5ED" font-weight="600"></text>
  <text x="200" y="220" text-anchor="middle" font-family="system-ui,sans-serif" font-size="14" fill="#FAF5ED" opacity="0.7"></text>
</svg>