<svg xmlns="http://www.w3.org/2000/svg" width="400" height="400" viewBox="0 0 400 400">
  <defs>
    <linearGradient id="bg" x1="0%" y1="0%" x2="100%" y2="100%">
      <stop offset="0%" stop-color="#B8705A"/>
      <stop offset="100%" stop-color="#9A5040"/>
    </linearGradient>
  </defs>
  <rect width="400" height="400" fill="url(#bg)"/>
  <g transform="translate(200,200) rotate(10) scale(1.5)">
    <path d="M0 80V-60" stroke="#FAF5ED" stroke-width="2" opacity="0.1" stroke-linecap="round"/>
    <path d="M0 -50C-25 -65,-35 -55,-20 -45" stroke="#FAF5ED" stroke-width="1.2" opacity="0.07" fill="none" stroke-linecap="round"/>
    <path d="M0 -30C25 -45,35 -35,20 -25" stroke="#FAF5ED" stroke-width="1.2" opacity="0.07" fill="none" stroke-linecap="round"/>
    <path d="M0 -10C-25 -25,-35 -15,-20 -5" stroke="#FAF5ED" stroke-width="1.2" opacity="0.07" fill="none" stroke-linecap="round"/>
    <path d="M0 10C25 -5,35 5,20 15" stroke="#FAF5ED" stroke-width="1.2" opacity="0.07" fill="none" stroke-linecap="round"/>
    <path d="M0 30C-25 15,-35 25,-20 35" stroke="#FAF5ED" stroke-width="1.2" opacity="0.07" fill="none" stroke-linecap="round"/>
    <path d="M0 50C25 35,35 45,20 55" stroke="#FAF5ED" stroke-width="1.2" opacity="0.07" fill="none" stroke-linecap="round"/>
  </g><circle cx="280.0" cy="200.0" r="5.9" fill="#FAF5ED" opacity="0.10"/><circle cx="256.6" cy="256.6" r="8.4" fill="#FAF5ED" opacity="0.09"/><circle cx="200.0" cy="280.0" r="8.5" fill="#FAF5ED" opacity="0.07"/><circle cx="143.4" cy="256.6" r="5.0" fill="#FAF5ED" opacity="0.10"/><circle cx="120.0" cy="200.0" r="3.3" fill="#FAF5ED" opacity="0.05"/><circle cx="143.4" cy="143.4" r="4.7" fill="#FAF5ED" opacity="0.05"/><circle cx="200.0" cy="120.0" r="6.3" fill="#FAF5ED" opacity="0.08"/><circle cx="256.6" cy="143.4" r="5.3" fill="#FAF5ED" opacity="0.06"/>
  <text x="200" y="190" text-anchor="middle" font-family="Georgia,serif" font-size="22" fill="#FAF5ED" font-weight="600"></text>
  <text x="200" y="220" text-anchor="middle" font-family="system-ui,sans-serif" font-size="14" fill="#FAF5ED" opacity="0.7"></text>
</svg>