<svg xmlns="http://www.w3.org/2000/svg" width="600" height="600" viewBox="0 0 600 600">
  <defs>
    <linearGradient id="bg" x1="0%" y1="0%" x2="100%" y2="100%">
      <stop offset="0%" stop-color="#5A8A4A"/>
      <stop offset="100%" stop-color="#7AAA6A"/>
    </linearGradient>
  </defs>
  <rect width="600" height="600" fill="url(#bg)"/>
  <line x1="80" y1="600" x2="80" y2="158.0903294467737" stroke="#FAF5ED" stroke-width="2.3817413071693254" opacity="0.05" stroke-linecap="round"/><line x1="68" y1="490" x2="92" y2="490" stroke="#FAF5ED" stroke-width="1" opacity="0.04"/><line x1="68" y1="380" x2="92" y2="380" stroke="#FAF5ED" stroke-width="1" opacity="0.04"/><line x1="68" y1="270" x2="92" y2="270" stroke="#FAF5ED" stroke-width="1" opacity="0.04"/><line x1="68" y1="160" x2="92" y2="160" stroke="#FAF5ED" stroke-width="1" opacity="0.04"/><line x1="145" y1="600" x2="145" y2="132.6672601925817" stroke="#FAF5ED" stroke-width="3.5642561614373043" opacity="0.08" stroke-linecap="round"/><line x1="133" y1="490" x2="157" y2="490" stroke="#FAF5ED" stroke-width="1" opacity="0.04"/><line x1="133" y1="380" x2="157" y2="380" stroke="#FAF5ED" stroke-width="1" opacity="0.04"/><line x1="133" y1="270" x2="157" y2="270" stroke="#FAF5ED" stroke-width="1" opacity="0.04"/><line x1="133" y1="160" x2="157" y2="160" stroke="#FAF5ED" stroke-width="1" opacity="0.04"/><line x1="210" y1="600" x2="210" y2="62.58954667509953" stroke="#FAF5ED" stroke-width="2.220205242983167" opacity="0.10" stroke-linecap="round"/><line x1="198" y1="490" x2="222" y2="490" stroke="#FAF5ED" stroke-width="1" opacity="0.04"/><line x1="198" y1="380" x2="222" y2="380" stroke="#FAF5ED" stroke-width="1" opacity="0.04"/><line x1="198" y1="270" x2="222" y2="270" stroke="#FAF5ED" stroke-width="1" opacity="0.04"/><line x1="198" y1="160" x2="222" y2="160" stroke="#FAF5ED" stroke-width="1" opacity="0.04"/><line x1="275" y1="600" x2="275" y2="102.91484202401776" stroke="#FAF5ED" stroke-width="3.578293786463918" opacity="0.13" stroke-linecap="round"/><line x1="263" y1="490" x2="287" y2="490" stroke="#FAF5ED" stroke-width="1" opacity="0.04"/><line x1="263" y1="380" x2="287" y2="380" stroke="#FAF5ED" stroke-width="1" opacity="0.04"/><line x1="263" y1="270" x2="287" y2="270" stroke="#FAF5ED" stroke-width="1" opacity="0.04"/><line x1="263" y1="160" x2="287" y2="160" stroke="#FAF5ED" stroke-width="1" opacity="0.04"/><line x1="340" y1="600" x2="340" y2="119.7925891270697" stroke="#FAF5ED" stroke-width="3.911459378254735" opacity="0.07" stroke-linecap="round"/><line x1="328" y1="490" x2="352" y2="490" stroke="#FAF5ED" stroke-width="1" opacity="0.04"/><line x1="328" y1="380" x2="352" y2="380" stroke="#FAF5ED" stroke-width="1" opacity="0.04"/><line x1="328" y1="270" x2="352" y2="270" stroke="#FAF5ED" stroke-width="1" opacity="0.04"/><line x1="328" y1="160" x2="352" y2="160" stroke="#FAF5ED" stroke-width="1" opacity="0.04"/><line x1="405" y1="600" x2="405" y2="106.94447389720867" stroke="#FAF5ED" stroke-width="3.7869766502919684" opacity="0.09" stroke-linecap="round"/><line x1="393" y1="490" x2="417" y2="490" stroke="#FAF5ED" stroke-width="1" opacity="0.04"/><line x1="393" y1="380" x2="417" y2="380" stroke="#FAF5ED" stroke-width="1" opacity="0.04"/><line x1="393" y1="270" x2="417" y2="270" stroke="#FAF5ED" stroke-width="1" opacity="0.04"/><line x1="393" y1="160" x2="417" y2="160" stroke="#FAF5ED" stroke-width="1" opacity="0.04"/><line x1="470" y1="600" x2="470" y2="153.3589213000613" stroke="#FAF5ED" stroke-width="3.64935608783166" opacity="0.10" stroke-linecap="round"/><line x1="458" y1="490" x2="482" y2="490" stroke="#FAF5ED" stroke-width="1" opacity="0.04"/><line x1="458" y1="380" x2="482" y2="380" stroke="#FAF5ED" stroke-width="1" opacity="0.04"/><line x1="458" y1="270" x2="482" y2="270" stroke="#FAF5ED" stroke-width="1" opacity="0.04"/><line x1="458" y1="160" x2="482" y2="160" stroke="#FAF5ED" stroke-width="1" opacity="0.04"/><line x1="535" y1="600" x2="535" y2="84.89160555116644" stroke="#FAF5ED" stroke-width="4.9195265616093025" opacity="0.13" stroke-linecap="round"/><line x1="523" y1="490" x2="547" y2="490" stroke="#FAF5ED" stroke-width="1" opacity="0.04"/><line x1="523" y1="380" x2="547" y2="380" stroke="#FAF5ED" stroke-width="1" opacity="0.04"/><line x1="523" y1="270" x2="547" y2="270" stroke="#FAF5ED" stroke-width="1" opacity="0.04"/><line x1="523" y1="160" x2="547" y2="160" stroke="#FAF5ED" stroke-width="1" opacity="0.04"/><g transform="translate(300,250) rotate(10) scale(1.5)">
    <path d="M0-60C-30-40,-40 0,-20 30C-10 50,0 60,0 60S10 50,20 30C40 0,30-40,0-60Z" fill="#FAF5ED" opacity="0.08"/>
    <path d="M0 60V-30" stroke="#FAF5ED" stroke-width="1.5" opacity="0.1" stroke-linecap="round"/>
    <path d="M0-10C-12-18,-18-14,-22-6" stroke="#FAF5ED" stroke-width="1" opacity="0.08" fill="none" stroke-linecap="round"/>
    <path d="M0 10C12 2,18 6,22 14" stroke="#FAF5ED" stroke-width="1" opacity="0.08" fill="none" stroke-linecap="round"/>
  </g>
  <text x="300" y="290" text-anchor="middle" font-family="Georgia,serif" font-size="22" fill="#FAF5ED" font-weight="600">Bamboo</text>
  <text x="300" y="320" text-anchor="middle" font-family="system-ui,sans-serif" font-size="14" fill="#FAF5ED" opacity="0.7">Nature's fastest renewable resource</text>
</svg>