<svg xmlns="http://www.w3.org/2000/svg" width="600" height="600" viewBox="0 0 600 600">
  <defs>
    <linearGradient id="bg" x1="0%" y1="0%" x2="100%" y2="100%">
      <stop offset="0%" stop-color="#B08A50"/>
      <stop offset="100%" stop-color="#D4A870"/>
    </linearGradient>
  </defs>
  <rect width="600" height="600" fill="url(#bg)"/>
  <ellipse cx="150" cy="200" rx="60" ry="100" fill="#FAF5ED" opacity="0.06" transform="rotate(-20 150 200)"/><line x1="150" y1="120" x2="150" y2="280" stroke="#FAF5ED" stroke-width="1.5" opacity="0.05" transform="rotate(-20 150 200)" stroke-linecap="round"/><ellipse cx="300" cy="280" rx="60" ry="100" fill="#FAF5ED" opacity="0.06" transform="rotate(0 300 280)"/><line x1="300" y1="200" x2="300" y2="360" stroke="#FAF5ED" stroke-width="1.5" opacity="0.05" transform="rotate(0 300 280)" stroke-linecap="round"/><ellipse cx="450" cy="360" rx="60" ry="100" fill="#FAF5ED" opacity="0.06" transform="rotate(20 450 360)"/><line x1="450" y1="280" x2="450" y2="440" stroke="#FAF5ED" stroke-width="1.5" opacity="0.05" transform="rotate(20 450 360)" stroke-linecap="round"/><path d="M0 180 Q150 160,300 180 T600 180" stroke="#FAF5ED" stroke-width="1" opacity="0.04" fill="none"/><path d="M0 220 Q150 205,300 220 T600 220" stroke="#FAF5ED" stroke-width="1" opacity="0.05" fill="none"/><path d="M0 260 Q150 250,300 260 T600 260" stroke="#FAF5ED" stroke-width="1" opacity="0.06" fill="none"/><path d="M0 300 Q150 295,300 300 T600 300" stroke="#FAF5ED" stroke-width="1" opacity="0.07" fill="none"/><path d="M0 340 Q150 340,300 340 T600 340" stroke="#FAF5ED" stroke-width="1" opacity="0.08" fill="none"/><circle cx="450.0" cy="300.0" r="4.0" fill="#FAF5ED" opacity="0.04"/><circle cx="429.9" cy="375.0" r="6.2" fill="#FAF5ED" opacity="0.07"/><circle cx="375.0" cy="429.9" r="5.9" fill="#FAF5ED" opacity="0.09"/><circle cx="300.0" cy="450.0" r="6.3" fill="#FAF5ED" opacity="0.05"/><circle cx="225.0" cy="429.9" r="3.5" fill="#FAF5ED" opacity="0.09"/><circle cx="170.1" cy="375.0" r="8.5" fill="#FAF5ED" opacity="0.10"/><circle cx="150.0" cy="300.0" r="7.1" fill="#FAF5ED" opacity="0.10"/><circle cx="170.1" cy="225.0" r="5.6" fill="#FAF5ED" opacity="0.05"/><circle cx="225.0" cy="170.1" r="4.6" fill="#FAF5ED" opacity="0.05"/><circle cx="300.0" cy="150.0" r="6.5" fill="#FAF5ED" opacity="0.09"/><circle cx="375.0" cy="170.1" r="3.2" fill="#FAF5ED" opacity="0.08"/><circle cx="429.9" cy="225.0" r="6.4" fill="#FAF5ED" opacity="0.09"/>
  <text x="300" y="290" text-anchor="middle" font-family="Georgia,serif" font-size="22" fill="#FAF5ED" font-weight="600">Banana Fabric</text>
  <text x="300" y="320" text-anchor="middle" font-family="system-ui,sans-serif" font-size="14" fill="#FAF5ED" opacity="0.7">Beauty from agricultural waste</text>
</svg>