<svg xmlns="http://www.w3.org/2000/svg" width="600" height="600" viewBox="0 0 600 600">
  <defs>
    <linearGradient id="bg" x1="0%" y1="0%" x2="100%" y2="100%">
      <stop offset="0%" stop-color="#3D6B5A"/>
      <stop offset="100%" stop-color="#5A8A76"/>
    </linearGradient>
  </defs>
  <rect width="600" height="600" fill="url(#bg)"/>
  <g transform="translate(300,250) rotate(0) scale(2.5)">
    <path d="M0-60C-30-40,-40 0,-20 30C-10 50,0 60,0 60S10 50,20 30C40 0,30-40,0-60Z" fill="#FAF5ED" opacity="0.08"/>
    <path d="M0 60V-30" stroke="#FAF5ED" stroke-width="1.5" opacity="0.1" stroke-linecap="round"/>
    <path d="M0-10C-12-18,-18-14,-22-6" stroke="#FAF5ED" stroke-width="1" opacity="0.08" fill="none" stroke-linecap="round"/>
    <path d="M0 10C12 2,18 6,22 14" stroke="#FAF5ED" stroke-width="1" opacity="0.08" fill="none" stroke-linecap="round"/>
  </g><g transform="translate(150,400) rotate(30) scale(1.5)">
    <path d="M0-60C-30-40,-40 0,-20 30C-10 50,0 60,0 60S10 50,20 30C40 0,30-40,0-60Z" fill="#FAF5ED" opacity="0.08"/>
    <path d="M0 60V-30" stroke="#FAF5ED" stroke-width="1.5" opacity="0.1" stroke-linecap="round"/>
    <path d="M0-10C-12-18,-18-14,-22-6" stroke="#FAF5ED" stroke-width="1" opacity="0.08" fill="none" stroke-linecap="round"/>
    <path d="M0 10C12 2,18 6,22 14" stroke="#FAF5ED" stroke-width="1" opacity="0.08" fill="none" stroke-linecap="round"/>
  </g><g transform="translate(450,380) rotate(-20) scale(1.3)">
    <path d="M0-60C-30-40,-40 0,-20 30C-10 50,0 60,0 60S10 50,20 30C40 0,30-40,0-60Z" fill="#FAF5ED" opacity="0.08"/>
    <path d="M0 60V-30" stroke="#FAF5ED" stroke-width="1.5" opacity="0.1" stroke-linecap="round"/>
    <path d="M0-10C-12-18,-18-14,-22-6" stroke="#FAF5ED" stroke-width="1" opacity="0.08" fill="none" stroke-linecap="round"/>
    <path d="M0 10C12 2,18 6,22 14" stroke="#FAF5ED" stroke-width="1" opacity="0.08" fill="none" stroke-linecap="round"/>
  </g><line x1="118" y1="352" x2="122" y2="378" stroke="#FAF5ED" stroke-width="0.5" opacity="0.07"/><line x1="467" y1="431" x2="430" y2="427" stroke="#FAF5ED" stroke-width="0.5" opacity="0.06"/><line x1="359" y1="367" x2="394" y2="402" stroke="#FAF5ED" stroke-width="0.5" opacity="0.07"/><line x1="409" y1="551" x2="403" y2="549" stroke="#FAF5ED" stroke-width="0.5" opacity="0.05"/><line x1="342" y1="387" x2="330" y2="426" stroke="#FAF5ED" stroke-width="0.5" opacity="0.06"/><line x1="354" y1="71" x2="367" y2="69" stroke="#FAF5ED" stroke-width="0.5" opacity="0.07"/><line x1="300" y1="458" x2="304" y2="434" stroke="#FAF5ED" stroke-width="0.5" opacity="0.05"/><line x1="331" y1="502" x2="313" y2="489" stroke="#FAF5ED" stroke-width="0.5" opacity="0.06"/><line x1="185" y1="43" x2="161" y2="13" stroke="#FAF5ED" stroke-width="0.5" opacity="0.03"/><line x1="14" y1="198" x2="-19" y2="162" stroke="#FAF5ED" stroke-width="0.5" opacity="0.04"/><line x1="237" y1="452" x2="208" y2="490" stroke="#FAF5ED" stroke-width="0.5" opacity="0.07"/><line x1="405" y1="529" x2="441" y2="559" stroke="#FAF5ED" stroke-width="0.5" opacity="0.04"/><line x1="121" y1="327" x2="154" y2="318" stroke="#FAF5ED" stroke-width="0.5" opacity="0.06"/><line x1="214" y1="326" x2="209" y2="343" stroke="#FAF5ED" stroke-width="0.5" opacity="0.03"/><line x1="411" y1="535" x2="409" y2="570" stroke="#FAF5ED" stroke-width="0.5" opacity="0.08"/><line x1="238" y1="594" x2="214" y2="607" stroke="#FAF5ED" stroke-width="0.5" opacity="0.06"/><line x1="337" y1="95" x2="361" y2="129" stroke="#FAF5ED" stroke-width="0.5" opacity="0.06"/><line x1="595" y1="195" x2="559" y2="194" stroke="#FAF5ED" stroke-width="0.5" opacity="0.04"/><line x1="6" y1="49" x2="17" y2="9" stroke="#FAF5ED" stroke-width="0.5" opacity="0.05"/><line x1="326" y1="80" x2="317" y2="84" stroke="#FAF5ED" stroke-width="0.5" opacity="0.05"/><line x1="511" y1="588" x2="487" y2="586" stroke="#FAF5ED" stroke-width="0.5" opacity="0.07"/><line x1="470" y1="108" x2="460" y2="86" stroke="#FAF5ED" stroke-width="0.5" opacity="0.04"/><line x1="544" y1="151" x2="575" y2="183" stroke="#FAF5ED" stroke-width="0.5" opacity="0.05"/><line x1="338" y1="273" x2="301" y2="268" stroke="#FAF5ED" stroke-width="0.5" opacity="0.03"/><line x1="221" y1="551" x2="256" y2="536" stroke="#FAF5ED" stroke-width="0.5" opacity="0.03"/><line x1="179" y1="12" x2="175" y2="36" stroke="#FAF5ED" stroke-width="0.5" opacity="0.05"/><line x1="221" y1="477" x2="245" y2="492" stroke="#FAF5ED" stroke-width="0.5" opacity="0.07"/><line x1="46" y1="51" x2="36" y2="52" stroke="#FAF5ED" stroke-width="0.5" opacity="0.06"/><line x1="291" y1="186" x2="260" y2="202" stroke="#FAF5ED" stroke-width="0.5" opacity="0.08"/><line x1="299" y1="264" x2="294" y2="233" stroke="#FAF5ED" stroke-width="0.5" opacity="0.05"/><circle cx="500.0" cy="300.0" r="4.1" fill="#FAF5ED" opacity="0.06"/><circle cx="484.8" cy="376.5" r="7.9" fill="#FAF5ED" opacity="0.04"/><circle cx="441.4" cy="441.4" r="4.4" fill="#FAF5ED" opacity="0.06"/><circle cx="376.5" cy="484.8" r="6.1" fill="#FAF5ED" opacity="0.09"/><circle cx="300.0" cy="500.0" r="4.0" fill="#FAF5ED" opacity="0.06"/><circle cx="223.5" cy="484.8" r="7.0" fill="#FAF5ED" opacity="0.06"/><circle cx="158.6" cy="441.4" r="5.4" fill="#FAF5ED" opacity="0.07"/><circle cx="115.2" cy="376.5" r="4.1" fill="#FAF5ED" opacity="0.07"/><circle cx="100.0" cy="300.0" r="8.7" fill="#FAF5ED" opacity="0.07"/><circle cx="115.2" cy="223.5" r="5.9" fill="#FAF5ED" opacity="0.10"/><circle cx="158.6" cy="158.6" r="6.7" fill="#FAF5ED" opacity="0.05"/><circle cx="223.5" cy="115.2" r="3.1" fill="#FAF5ED" opacity="0.07"/><circle cx="300.0" cy="100.0" r="4.1" fill="#FAF5ED" opacity="0.05"/><circle cx="376.5" cy="115.2" r="8.4" fill="#FAF5ED" opacity="0.09"/><circle cx="441.4" cy="158.6" r="5.8" fill="#FAF5ED" opacity="0.05"/><circle cx="484.8" cy="223.5" r="3.5" fill="#FAF5ED" opacity="0.09"/>
  <text x="300" y="290" text-anchor="middle" font-family="Georgia,serif" font-size="22" fill="#FAF5ED" font-weight="600">Hemp</text>
  <text x="300" y="320" text-anchor="middle" font-family="system-ui,sans-serif" font-size="14" fill="#FAF5ED" opacity="0.7">The ancient super-fiber · 10,000+ years of use</text>
</svg>