<svg xmlns="http://www.w3.org/2000/svg" width="600" height="450" viewBox="0 0 600 450">
  <defs>
    <linearGradient id="bg" x1="0%" y1="0%" x2="100%" y2="100%">
      <stop offset="0%" stop-color="#9A8A70"/>
      <stop offset="100%" stop-color="#7A6A50"/>
    </linearGradient>
    <linearGradient id="overlay" x1="0%" y1="60%" x2="0%" y2="100%">
      <stop offset="0%" stop-color="#3D2817" stop-opacity="0"/>
      <stop offset="100%" stop-color="#2C3E36" stop-opacity="0.5"/>
    </linearGradient>
  </defs>
  <rect width="600" height="450" fill="url(#bg)"/>
  <line x1="414" y1="57" x2="448" y2="40" stroke="#FAF5ED" stroke-width="0.5" opacity="0.04"/><line x1="390" y1="407" x2="392" y2="436" stroke="#FAF5ED" stroke-width="0.5" opacity="0.06"/><line x1="389" y1="117" x2="375" y2="129" stroke="#FAF5ED" stroke-width="0.5" opacity="0.03"/><line x1="335" y1="147" x2="318" y2="145" stroke="#FAF5ED" stroke-width="0.5" opacity="0.07"/><line x1="316" y1="185" x2="335" y2="154" stroke="#FAF5ED" stroke-width="0.5" opacity="0.07"/><line x1="21" y1="300" x2="58" y2="308" stroke="#FAF5ED" stroke-width="0.5" opacity="0.07"/><line x1="499" y1="371" x2="509" y2="333" stroke="#FAF5ED" stroke-width="0.5" opacity="0.07"/><line x1="393" y1="54" x2="422" y2="85" stroke="#FAF5ED" stroke-width="0.5" opacity="0.06"/><line x1="176" y1="247" x2="202" y2="264" stroke="#FAF5ED" stroke-width="0.5" opacity="0.04"/><line x1="9" y1="162" x2="7" y2="183" stroke="#FAF5ED" stroke-width="0.5" opacity="0.06"/><line x1="184" y1="136" x2="197" y2="159" stroke="#FAF5ED" stroke-width="0.5" opacity="0.06"/><line x1="279" y1="368" x2="240" y2="362" stroke="#FAF5ED" stroke-width="0.5" opacity="0.07"/><line x1="267" y1="91" x2="238" y2="106" stroke="#FAF5ED" stroke-width="0.5" opacity="0.04"/><line x1="553" y1="352" x2="562" y2="348" stroke="#FAF5ED" stroke-width="0.5" opacity="0.05"/><line x1="329" y1="351" x2="336" y2="390" stroke="#FAF5ED" stroke-width="0.5" opacity="0.04"/><line x1="81" y1="89" x2="59" y2="106" stroke="#FAF5ED" stroke-width="0.5" opacity="0.06"/><line x1="592" y1="186" x2="577" y2="174" stroke="#FAF5ED" stroke-width="0.5" opacity="0.06"/><line x1="589" y1="37" x2="580" y2="45" stroke="#FAF5ED" stroke-width="0.5" opacity="0.08"/><line x1="249" y1="159" x2="274" y2="133" stroke="#FAF5ED" stroke-width="0.5" opacity="0.03"/><line x1="575" y1="174" x2="589" y2="196" stroke="#FAF5ED" stroke-width="0.5" opacity="0.07"/><g transform="translate(300,200) rotate(60) scale(1.2)">
    <path d="M0-60C-30-40,-40 0,-20 30C-10 50,0 60,0 60S10 50,20 30C40 0,30-40,0-60Z" fill="#FAF5ED" opacity="0.08"/>
    <path d="M0 60V-30" stroke="#FAF5ED" stroke-width="1.5" opacity="0.1" stroke-linecap="round"/>
    <path d="M0-10C-12-18,-18-14,-22-6" stroke="#FAF5ED" stroke-width="1" opacity="0.08" fill="none" stroke-linecap="round"/>
    <path d="M0 10C12 2,18 6,22 14" stroke="#FAF5ED" stroke-width="1" opacity="0.08" fill="none" stroke-linecap="round"/>
  </g><circle cx="380.0" cy="225.0" r="3.7" fill="#FAF5ED" opacity="0.08"/><circle cx="356.6" cy="281.6" r="8.0" fill="#FAF5ED" opacity="0.08"/><circle cx="300.0" cy="305.0" r="7.9" fill="#FAF5ED" opacity="0.10"/><circle cx="243.4" cy="281.6" r="7.9" fill="#FAF5ED" opacity="0.05"/><circle cx="220.0" cy="225.0" r="6.8" fill="#FAF5ED" opacity="0.04"/><circle cx="243.4" cy="168.4" r="5.6" fill="#FAF5ED" opacity="0.08"/><circle cx="300.0" cy="145.0" r="8.1" fill="#FAF5ED" opacity="0.07"/><circle cx="356.6" cy="168.4" r="5.2" fill="#FAF5ED" opacity="0.06"/>
  <rect width="600" height="450" fill="url(#overlay)"/>
  <text x="300" y="390" text-anchor="middle" font-family="Georgia,serif" font-size="24" fill="#FAF5ED" font-weight="600">Quality Check</text>
  <text x="300" y="418" text-anchor="middle" font-family="system-ui,sans-serif" font-size="14" fill="#D4C5A9">Behind the scenes</text>
</svg>