<svg xmlns="http://www.w3.org/2000/svg" width="600" height="450" viewBox="0 0 600 450">
  <defs>
    <linearGradient id="bg" x1="0%" y1="0%" x2="100%" y2="100%">
      <stop offset="0%" stop-color="#7A8A7E"/>
      <stop offset="100%" stop-color="#5A6A5E"/>
    </linearGradient>
    <linearGradient id="overlay" x1="0%" y1="60%" x2="0%" y2="100%">
      <stop offset="0%" stop-color="#3D2817" stop-opacity="0"/>
      <stop offset="100%" stop-color="#2C3E36" stop-opacity="0.5"/>
    </linearGradient>
  </defs>
  <rect width="600" height="450" fill="url(#bg)"/>
  <line x1="308" y1="268" x2="308" y2="239" stroke="#FAF5ED" stroke-width="0.5" opacity="0.07"/><line x1="491" y1="37" x2="506" y2="16" stroke="#FAF5ED" stroke-width="0.5" opacity="0.04"/><line x1="14" y1="396" x2="-18" y2="359" stroke="#FAF5ED" stroke-width="0.5" opacity="0.06"/><line x1="435" y1="287" x2="456" y2="277" stroke="#FAF5ED" stroke-width="0.5" opacity="0.06"/><line x1="251" y1="234" x2="276" y2="238" stroke="#FAF5ED" stroke-width="0.5" opacity="0.06"/><line x1="569" y1="20" x2="598" y2="24" stroke="#FAF5ED" stroke-width="0.5" opacity="0.07"/><line x1="562" y1="233" x2="591" y2="224" stroke="#FAF5ED" stroke-width="0.5" opacity="0.07"/><line x1="518" y1="159" x2="526" y2="134" stroke="#FAF5ED" stroke-width="0.5" opacity="0.05"/><line x1="290" y1="270" x2="263" y2="299" stroke="#FAF5ED" stroke-width="0.5" opacity="0.05"/><line x1="567" y1="327" x2="564" y2="313" stroke="#FAF5ED" stroke-width="0.5" opacity="0.06"/><line x1="360" y1="163" x2="324" y2="154" stroke="#FAF5ED" stroke-width="0.5" opacity="0.07"/><line x1="222" y1="174" x2="182" y2="147" stroke="#FAF5ED" stroke-width="0.5" opacity="0.04"/><line x1="14" y1="395" x2="28" y2="393" stroke="#FAF5ED" stroke-width="0.5" opacity="0.06"/><line x1="357" y1="306" x2="392" y2="285" stroke="#FAF5ED" stroke-width="0.5" opacity="0.03"/><line x1="64" y1="12" x2="83" y2="43" stroke="#FAF5ED" stroke-width="0.5" opacity="0.08"/><line x1="89" y1="186" x2="113" y2="159" stroke="#FAF5ED" stroke-width="0.5" opacity="0.07"/><line x1="278" y1="113" x2="304" y2="83" stroke="#FAF5ED" stroke-width="0.5" opacity="0.05"/><line x1="183" y1="28" x2="218" y2="27" stroke="#FAF5ED" stroke-width="0.5" opacity="0.06"/><line x1="52" y1="143" x2="66" y2="167" stroke="#FAF5ED" stroke-width="0.5" opacity="0.06"/><line x1="511" y1="47" x2="535" y2="23" stroke="#FAF5ED" stroke-width="0.5" opacity="0.04"/><g transform="translate(300,200) rotate(75) scale(1.2)">
    <path d="M0-60C-30-40,-40 0,-20 30C-10 50,0 60,0 60S10 50,20 30C40 0,30-40,0-60Z" fill="#FAF5ED" opacity="0.08"/>
    <path d="M0 60V-30" stroke="#FAF5ED" stroke-width="1.5" opacity="0.1" stroke-linecap="round"/>
    <path d="M0-10C-12-18,-18-14,-22-6" stroke="#FAF5ED" stroke-width="1" opacity="0.08" fill="none" stroke-linecap="round"/>
    <path d="M0 10C12 2,18 6,22 14" stroke="#FAF5ED" stroke-width="1" opacity="0.08" fill="none" stroke-linecap="round"/>
  </g><circle cx="380.0" cy="225.0" r="4.6" fill="#FAF5ED" opacity="0.04"/><circle cx="356.6" cy="281.6" r="8.3" fill="#FAF5ED" opacity="0.08"/><circle cx="300.0" cy="305.0" r="7.7" fill="#FAF5ED" opacity="0.09"/><circle cx="243.4" cy="281.6" r="6.0" fill="#FAF5ED" opacity="0.08"/><circle cx="220.0" cy="225.0" r="6.5" fill="#FAF5ED" opacity="0.06"/><circle cx="243.4" cy="168.4" r="6.2" fill="#FAF5ED" opacity="0.09"/><circle cx="300.0" cy="145.0" r="5.3" fill="#FAF5ED" opacity="0.07"/><circle cx="356.6" cy="168.4" r="7.6" fill="#FAF5ED" opacity="0.06"/>
  <rect width="600" height="450" fill="url(#overlay)"/>
  <text x="300" y="390" text-anchor="middle" font-family="Georgia,serif" font-size="24" fill="#FAF5ED" font-weight="600">Final Touch</text>
  <text x="300" y="418" text-anchor="middle" font-family="system-ui,sans-serif" font-size="14" fill="#D4C5A9">Behind the scenes</text>
</svg>