<svg xmlns="http://www.w3.org/2000/svg" width="600" height="450" viewBox="0 0 600 450">
  <defs>
    <linearGradient id="bg" x1="0%" y1="0%" x2="100%" y2="100%">
      <stop offset="0%" stop-color="#5A8A5E"/>
      <stop offset="100%" stop-color="#4A7A4E"/>
    </linearGradient>
    <linearGradient id="overlay" x1="0%" y1="60%" x2="0%" y2="100%">
      <stop offset="0%" stop-color="#3D2817" stop-opacity="0"/>
      <stop offset="100%" stop-color="#2C3E36" stop-opacity="0.5"/>
    </linearGradient>
  </defs>
  <rect width="600" height="450" fill="url(#bg)"/>
  <line x1="277" y1="392" x2="275" y2="424" stroke="#FAF5ED" stroke-width="0.5" opacity="0.06"/><line x1="582" y1="343" x2="608" y2="368" stroke="#FAF5ED" stroke-width="0.5" opacity="0.07"/><line x1="95" y1="426" x2="99" y2="390" stroke="#FAF5ED" stroke-width="0.5" opacity="0.08"/><line x1="350" y1="304" x2="386" y2="264" stroke="#FAF5ED" stroke-width="0.5" opacity="0.04"/><line x1="506" y1="70" x2="482" y2="40" stroke="#FAF5ED" stroke-width="0.5" opacity="0.06"/><line x1="530" y1="254" x2="498" y2="282" stroke="#FAF5ED" stroke-width="0.5" opacity="0.05"/><line x1="360" y1="396" x2="378" y2="362" stroke="#FAF5ED" stroke-width="0.5" opacity="0.04"/><line x1="247" y1="171" x2="247" y2="146" stroke="#FAF5ED" stroke-width="0.5" opacity="0.04"/><line x1="111" y1="423" x2="115" y2="397" stroke="#FAF5ED" stroke-width="0.5" opacity="0.03"/><line x1="343" y1="20" x2="333" y2="48" stroke="#FAF5ED" stroke-width="0.5" opacity="0.05"/><line x1="307" y1="423" x2="302" y2="396" stroke="#FAF5ED" stroke-width="0.5" opacity="0.06"/><line x1="267" y1="156" x2="263" y2="177" stroke="#FAF5ED" stroke-width="0.5" opacity="0.04"/><line x1="353" y1="322" x2="325" y2="307" stroke="#FAF5ED" stroke-width="0.5" opacity="0.04"/><line x1="77" y1="364" x2="98" y2="368" stroke="#FAF5ED" stroke-width="0.5" opacity="0.05"/><line x1="319" y1="347" x2="321" y2="317" stroke="#FAF5ED" stroke-width="0.5" opacity="0.03"/><line x1="281" y1="187" x2="270" y2="159" stroke="#FAF5ED" stroke-width="0.5" opacity="0.06"/><line x1="355" y1="284" x2="339" y2="305" stroke="#FAF5ED" stroke-width="0.5" opacity="0.06"/><line x1="405" y1="240" x2="404" y2="257" stroke="#FAF5ED" stroke-width="0.5" opacity="0.05"/><line x1="529" y1="230" x2="549" y2="207" stroke="#FAF5ED" stroke-width="0.5" opacity="0.06"/><line x1="468" y1="390" x2="500" y2="369" stroke="#FAF5ED" stroke-width="0.5" opacity="0.07"/><g transform="translate(300,200) rotate(30) scale(1.2)">
    <path d="M0-60C-30-40,-40 0,-20 30C-10 50,0 60,0 60S10 50,20 30C40 0,30-40,0-60Z" fill="#FAF5ED" opacity="0.08"/>
    <path d="M0 60V-30" stroke="#FAF5ED" stroke-width="1.5" opacity="0.1" stroke-linecap="round"/>
    <path d="M0-10C-12-18,-18-14,-22-6" stroke="#FAF5ED" stroke-width="1" opacity="0.08" fill="none" stroke-linecap="round"/>
    <path d="M0 10C12 2,18 6,22 14" stroke="#FAF5ED" stroke-width="1" opacity="0.08" fill="none" stroke-linecap="round"/>
  </g><circle cx="380.0" cy="225.0" r="7.7" fill="#FAF5ED" opacity="0.09"/><circle cx="356.6" cy="281.6" r="3.1" fill="#FAF5ED" opacity="0.05"/><circle cx="300.0" cy="305.0" r="7.4" fill="#FAF5ED" opacity="0.05"/><circle cx="243.4" cy="281.6" r="7.2" fill="#FAF5ED" opacity="0.08"/><circle cx="220.0" cy="225.0" r="6.3" fill="#FAF5ED" opacity="0.09"/><circle cx="243.4" cy="168.4" r="8.7" fill="#FAF5ED" opacity="0.07"/><circle cx="300.0" cy="145.0" r="4.1" fill="#FAF5ED" opacity="0.06"/><circle cx="356.6" cy="168.4" r="3.7" fill="#FAF5ED" opacity="0.04"/>
  <rect width="600" height="450" fill="url(#overlay)"/>
  <text x="300" y="390" text-anchor="middle" font-family="Georgia,serif" font-size="24" fill="#FAF5ED" font-weight="600">Leaf Selection</text>
  <text x="300" y="418" text-anchor="middle" font-family="system-ui,sans-serif" font-size="14" fill="#D4C5A9">Behind the scenes</text>
</svg>