<svg xmlns="http://www.w3.org/2000/svg" width="600" height="450" viewBox="0 0 600 450">
  <defs>
    <linearGradient id="bg" x1="0%" y1="0%" x2="100%" y2="100%">
      <stop offset="0%" stop-color="#8A7A5A"/>
      <stop offset="100%" stop-color="#6A5A3A"/>
    </linearGradient>
    <linearGradient id="overlay" x1="0%" y1="60%" x2="0%" y2="100%">
      <stop offset="0%" stop-color="#3D2817" stop-opacity="0"/>
      <stop offset="100%" stop-color="#2C3E36" stop-opacity="0.5"/>
    </linearGradient>
  </defs>
  <rect width="600" height="450" fill="url(#bg)"/>
  <line x1="222" y1="259" x2="240" y2="264" stroke="#FAF5ED" stroke-width="0.5" opacity="0.04"/><line x1="387" y1="369" x2="370" y2="405" stroke="#FAF5ED" stroke-width="0.5" opacity="0.08"/><line x1="108" y1="446" x2="99" y2="430" stroke="#FAF5ED" stroke-width="0.5" opacity="0.07"/><line x1="38" y1="333" x2="27" y2="358" stroke="#FAF5ED" stroke-width="0.5" opacity="0.07"/><line x1="74" y1="98" x2="54" y2="111" stroke="#FAF5ED" stroke-width="0.5" opacity="0.06"/><line x1="458" y1="201" x2="475" y2="236" stroke="#FAF5ED" stroke-width="0.5" opacity="0.06"/><line x1="48" y1="150" x2="37" y2="121" stroke="#FAF5ED" stroke-width="0.5" opacity="0.06"/><line x1="266" y1="217" x2="274" y2="198" stroke="#FAF5ED" stroke-width="0.5" opacity="0.03"/><line x1="370" y1="183" x2="342" y2="145" stroke="#FAF5ED" stroke-width="0.5" opacity="0.04"/><line x1="35" y1="155" x2="31" y2="176" stroke="#FAF5ED" stroke-width="0.5" opacity="0.04"/><line x1="65" y1="439" x2="89" y2="429" stroke="#FAF5ED" stroke-width="0.5" opacity="0.06"/><line x1="230" y1="357" x2="197" y2="372" stroke="#FAF5ED" stroke-width="0.5" opacity="0.03"/><line x1="375" y1="43" x2="396" y2="79" stroke="#FAF5ED" stroke-width="0.5" opacity="0.05"/><line x1="160" y1="186" x2="183" y2="165" stroke="#FAF5ED" stroke-width="0.5" opacity="0.06"/><line x1="273" y1="236" x2="292" y2="261" stroke="#FAF5ED" stroke-width="0.5" opacity="0.06"/><line x1="273" y1="208" x2="251" y2="193" stroke="#FAF5ED" stroke-width="0.5" opacity="0.03"/><line x1="562" y1="170" x2="571" y2="176" stroke="#FAF5ED" stroke-width="0.5" opacity="0.05"/><line x1="244" y1="218" x2="206" y2="217" stroke="#FAF5ED" stroke-width="0.5" opacity="0.04"/><line x1="541" y1="392" x2="517" y2="398" stroke="#FAF5ED" stroke-width="0.5" opacity="0.05"/><line x1="556" y1="410" x2="533" y2="441" stroke="#FAF5ED" stroke-width="0.5" opacity="0.08"/><g transform="translate(300,200) rotate(45) scale(1.2)">
    <path d="M0-60C-30-40,-40 0,-20 30C-10 50,0 60,0 60S10 50,20 30C40 0,30-40,0-60Z" fill="#FAF5ED" opacity="0.08"/>
    <path d="M0 60V-30" stroke="#FAF5ED" stroke-width="1.5" opacity="0.1" stroke-linecap="round"/>
    <path d="M0-10C-12-18,-18-14,-22-6" stroke="#FAF5ED" stroke-width="1" opacity="0.08" fill="none" stroke-linecap="round"/>
    <path d="M0 10C12 2,18 6,22 14" stroke="#FAF5ED" stroke-width="1" opacity="0.08" fill="none" stroke-linecap="round"/>
  </g><circle cx="380.0" cy="225.0" r="7.3" fill="#FAF5ED" opacity="0.05"/><circle cx="356.6" cy="281.6" r="7.4" fill="#FAF5ED" opacity="0.04"/><circle cx="300.0" cy="305.0" r="4.5" fill="#FAF5ED" opacity="0.10"/><circle cx="243.4" cy="281.6" r="7.2" fill="#FAF5ED" opacity="0.07"/><circle cx="220.0" cy="225.0" r="8.4" fill="#FAF5ED" opacity="0.08"/><circle cx="243.4" cy="168.4" r="6.2" fill="#FAF5ED" opacity="0.10"/><circle cx="300.0" cy="145.0" r="6.9" fill="#FAF5ED" opacity="0.09"/><circle cx="356.6" cy="168.4" r="5.9" fill="#FAF5ED" opacity="0.07"/>
  <rect width="600" height="450" fill="url(#overlay)"/>
  <text x="300" y="390" text-anchor="middle" font-family="Georgia,serif" font-size="24" fill="#FAF5ED" font-weight="600">Hand Stitching</text>
  <text x="300" y="418" text-anchor="middle" font-family="system-ui,sans-serif" font-size="14" fill="#D4C5A9">Behind the scenes</text>
</svg>