<svg xmlns="http://www.w3.org/2000/svg" width="600" height="450" viewBox="0 0 600 450">
  <defs>
    <linearGradient id="bg" x1="0%" y1="0%" x2="100%" y2="100%">
      <stop offset="0%" stop-color="#6A5A8A"/>
      <stop offset="100%" stop-color="#8A6A5A"/>
    </linearGradient>
    <linearGradient id="overlay" x1="0%" y1="60%" x2="0%" y2="100%">
      <stop offset="0%" stop-color="#3D2817" stop-opacity="0"/>
      <stop offset="100%" stop-color="#2C3E36" stop-opacity="0.5"/>
    </linearGradient>
  </defs>
  <rect width="600" height="450" fill="url(#bg)"/>
  <line x1="268" y1="122" x2="269" y2="106" stroke="#FAF5ED" stroke-width="0.5" opacity="0.08"/><line x1="435" y1="29" x2="438" y2="34" stroke="#FAF5ED" stroke-width="0.5" opacity="0.04"/><line x1="447" y1="109" x2="443" y2="110" stroke="#FAF5ED" stroke-width="0.5" opacity="0.07"/><line x1="306" y1="133" x2="308" y2="134" stroke="#FAF5ED" stroke-width="0.5" opacity="0.05"/><line x1="108" y1="287" x2="144" y2="289" stroke="#FAF5ED" stroke-width="0.5" opacity="0.03"/><line x1="82" y1="246" x2="121" y2="270" stroke="#FAF5ED" stroke-width="0.5" opacity="0.06"/><line x1="345" y1="428" x2="375" y2="438" stroke="#FAF5ED" stroke-width="0.5" opacity="0.05"/><line x1="240" y1="110" x2="239" y2="130" stroke="#FAF5ED" stroke-width="0.5" opacity="0.06"/><line x1="197" y1="421" x2="221" y2="443" stroke="#FAF5ED" stroke-width="0.5" opacity="0.07"/><line x1="191" y1="361" x2="229" y2="354" stroke="#FAF5ED" stroke-width="0.5" opacity="0.04"/><line x1="575" y1="319" x2="562" y2="320" stroke="#FAF5ED" stroke-width="0.5" opacity="0.07"/><line x1="597" y1="380" x2="605" y2="377" stroke="#FAF5ED" stroke-width="0.5" opacity="0.07"/><line x1="363" y1="415" x2="327" y2="420" stroke="#FAF5ED" stroke-width="0.5" opacity="0.05"/><line x1="545" y1="88" x2="576" y2="51" stroke="#FAF5ED" stroke-width="0.5" opacity="0.05"/><line x1="495" y1="105" x2="512" y2="86" stroke="#FAF5ED" stroke-width="0.5" opacity="0.08"/><line x1="332" y1="264" x2="322" y2="258" stroke="#FAF5ED" stroke-width="0.5" opacity="0.08"/><line x1="86" y1="131" x2="59" y2="162" stroke="#FAF5ED" stroke-width="0.5" opacity="0.06"/><line x1="211" y1="365" x2="249" y2="346" stroke="#FAF5ED" stroke-width="0.5" opacity="0.03"/><line x1="23" y1="348" x2="43" y2="357" stroke="#FAF5ED" stroke-width="0.5" opacity="0.03"/><line x1="139" y1="218" x2="109" y2="185" stroke="#FAF5ED" stroke-width="0.5" opacity="0.07"/><g transform="translate(300,200) rotate(15) scale(1.2)">
    <path d="M0-60C-30-40,-40 0,-20 30C-10 50,0 60,0 60S10 50,20 30C40 0,30-40,0-60Z" fill="#FAF5ED" opacity="0.08"/>
    <path d="M0 60V-30" stroke="#FAF5ED" stroke-width="1.5" opacity="0.1" stroke-linecap="round"/>
    <path d="M0-10C-12-18,-18-14,-22-6" stroke="#FAF5ED" stroke-width="1" opacity="0.08" fill="none" stroke-linecap="round"/>
    <path d="M0 10C12 2,18 6,22 14" stroke="#FAF5ED" stroke-width="1" opacity="0.08" fill="none" stroke-linecap="round"/>
  </g><circle cx="380.0" cy="225.0" r="4.9" fill="#FAF5ED" opacity="0.04"/><circle cx="356.6" cy="281.6" r="6.8" fill="#FAF5ED" opacity="0.05"/><circle cx="300.0" cy="305.0" r="9.0" fill="#FAF5ED" opacity="0.04"/><circle cx="243.4" cy="281.6" r="3.7" fill="#FAF5ED" opacity="0.07"/><circle cx="220.0" cy="225.0" r="5.0" fill="#FAF5ED" opacity="0.06"/><circle cx="243.4" cy="168.4" r="7.6" fill="#FAF5ED" opacity="0.05"/><circle cx="300.0" cy="145.0" r="6.4" fill="#FAF5ED" opacity="0.07"/><circle cx="356.6" cy="168.4" r="8.1" fill="#FAF5ED" opacity="0.08"/>
  <rect width="600" height="450" fill="url(#overlay)"/>
  <text x="300" y="390" text-anchor="middle" font-family="Georgia,serif" font-size="24" fill="#FAF5ED" font-weight="600">Dye Preparation</text>
  <text x="300" y="418" text-anchor="middle" font-family="system-ui,sans-serif" font-size="14" fill="#D4C5A9">Behind the scenes</text>
</svg>